<svg width="20" height="20" viewBox="0 0 20 20" fill="none" xmlns="http://www.w3.org/2000/svg">
<g clip-path="url(#clip0_47_189)">
<path d="M18.1603 15.5863C17.8578 16.285 17.4998 16.9282 17.085 17.5196C16.5196 18.3257 16.0567 18.8837 15.6999 19.1936C15.1468 19.7022 14.5542 19.9627 13.9197 19.9775C13.4641 19.9775 12.9148 19.8479 12.2753 19.5849C11.6337 19.3232 11.0441 19.1936 10.505 19.1936C9.93957 19.1936 9.33317 19.3232 8.68455 19.5849C8.03494 19.8479 7.51162 19.9849 7.11151 19.9985C6.50301 20.0244 5.89649 19.7565 5.29107 19.1936C4.90467 18.8566 4.42135 18.2788 3.84235 17.4603C3.22114 16.5863 2.71042 15.5727 2.3103 14.4172C1.8818 13.1691 1.66699 11.9605 1.66699 10.7904C1.66699 9.45006 1.95661 8.29404 2.53672 7.3253C2.99263 6.54718 3.59915 5.93337 4.35826 5.48277C5.11738 5.03216 5.9376 4.80254 6.8209 4.78785C7.30422 4.78785 7.93803 4.93735 8.72566 5.23117C9.51106 5.52598 10.0154 5.67548 10.2365 5.67548C10.4018 5.67548 10.962 5.50067 11.9117 5.15216C12.8098 4.82896 13.5678 4.69514 14.1888 4.74785C15.8715 4.88365 17.1356 5.54696 17.9763 6.74199C16.4715 7.65381 15.727 8.93093 15.7419 10.5693C15.7554 11.8454 16.2184 12.9074 17.1282 13.7505C17.5406 14.1419 18.001 14.4443 18.5134 14.6592C18.4023 14.9814 18.285 15.29 18.1603 15.5863ZM14.3012 0.400328C14.3012 1.40056 13.9357 2.33447 13.2074 3.19888C12.3284 4.22651 11.2652 4.82032 10.1123 4.72662C10.0976 4.60662 10.0891 4.48033 10.0891 4.34762C10.0891 3.3874 10.5071 2.35977 11.2494 1.51955C11.62 1.09413 12.0914 0.740404 12.6629 0.458227C13.2333 0.18026 13.7728 0.0265378 14.2802 0.000213623C14.295 0.133929 14.3012 0.267652 14.3012 0.400315V0.400328Z" fill="black"/>
</g>
<defs>
<clipPath id="clip0_47_189">
<rect width="20" height="20" fill="white"/>
</clipPath>
</defs>
</svg>
