<svg width="40" height="31" viewBox="0 0 40 31" fill="none" xmlns="http://www.w3.org/2000/svg">
<path d="M4.44444 0C1.99306 0 0 1.98594 0 4.42857V6.64286H40V4.42857C40 1.98594 38.0069 0 35.5556 0H4.44444ZM40 13.2857H0V26.5714C0 29.0141 1.99306 31 4.44444 31H35.5556C38.0069 31 40 29.0141 40 26.5714V13.2857ZM7.77778 22.1429H12.2222C12.8333 22.1429 13.3333 22.6411 13.3333 23.25C13.3333 23.8589 12.8333 24.3571 12.2222 24.3571H7.77778C7.16667 24.3571 6.66667 23.8589 6.66667 23.25C6.66667 22.6411 7.16667 22.1429 7.77778 22.1429ZM15.5556 23.25C15.5556 22.6411 16.0556 22.1429 16.6667 22.1429H25.5556C26.1667 22.1429 26.6667 22.6411 26.6667 23.25C26.6667 23.8589 26.1667 24.3571 25.5556 24.3571H16.6667C16.0556 24.3571 15.5556 23.8589 15.5556 23.25Z" fill="black"/>
</svg>
