<svg width="27" height="31" viewBox="0 0 27 31" fill="none" xmlns="http://www.w3.org/2000/svg">
<path d="M8.67857 8.71875V11.625H18.3214V8.71875C18.3214 6.04258 16.1638 3.875 13.5 3.875C10.8362 3.875 8.67857 6.04258 8.67857 8.71875ZM4.82143 11.625V8.71875C4.82143 3.90527 8.70871 0 13.5 0C18.2913 0 22.1786 3.90527 22.1786 8.71875V11.625H23.1429C25.2703 11.625 27 13.3627 27 15.5V27.125C27 29.2623 25.2703 31 23.1429 31H3.85714C1.72969 31 0 29.2623 0 27.125V15.5C0 13.3627 1.72969 11.625 3.85714 11.625H4.82143Z" fill="black"/>
</svg>
