<svg width="137" height="12" viewBox="0 0 137 12" fill="none" xmlns="http://www.w3.org/2000/svg">
<path d="M4.908 9.096C4.1 9.096 3.364 8.908 2.7 8.532C2.036 8.148 1.516 7.628 1.14 6.972C0.764 6.316 0.576 5.588 0.576 4.788C0.576 3.988 0.764 3.264 1.14 2.616C1.516 1.96 2.036 1.444 2.7 1.068C3.364 0.692 4.1 0.504 4.908 0.504C5.724 0.504 6.46 0.692 7.116 1.068C7.78 1.444 8.3 1.96 8.676 2.616C9.06 3.264 9.252 3.988 9.252 4.788C9.252 5.588 9.06 6.316 8.676 6.972C8.3 7.628 7.78 8.148 7.116 8.532C6.46 8.908 5.724 9.096 4.908 9.096ZM4.908 8.424C5.596 8.424 6.216 8.264 6.768 7.944C7.328 7.624 7.764 7.188 8.076 6.636C8.396 6.076 8.556 5.46 8.556 4.788C8.556 4.116 8.396 3.504 8.076 2.952C7.764 2.4 7.328 1.968 6.768 1.656C6.216 1.336 5.596 1.176 4.908 1.176C4.22 1.176 3.596 1.336 3.036 1.656C2.484 1.968 2.048 2.4 1.728 2.952C1.416 3.504 1.26 4.116 1.26 4.788C1.26 5.46 1.416 6.076 1.728 6.636C2.048 7.188 2.484 7.624 3.036 7.944C3.596 8.264 4.22 8.424 4.908 8.424ZM4.92 6.828C4.592 6.828 4.328 6.736 4.128 6.552C3.928 6.368 3.828 6.116 3.828 5.796V3.852C3.828 3.54 3.924 3.292 4.116 3.108C4.316 2.924 4.584 2.832 4.92 2.832C5.256 2.832 5.524 2.924 5.724 3.108C5.924 3.292 6.024 3.54 6.024 3.852V3.9C6.024 3.98 5.984 4.02 5.904 4.02L5.496 4.044C5.416 4.044 5.376 4.004 5.376 3.924V3.804C5.376 3.684 5.332 3.584 5.244 3.504C5.164 3.424 5.056 3.384 4.92 3.384C4.792 3.384 4.684 3.424 4.596 3.504C4.516 3.584 4.476 3.684 4.476 3.804V5.844C4.476 5.972 4.516 6.076 4.596 6.156C4.676 6.228 4.784 6.264 4.92 6.264C5.056 6.264 5.164 6.228 5.244 6.156C5.332 6.076 5.376 5.972 5.376 5.844V5.724C5.376 5.644 5.416 5.604 5.496 5.604L5.904 5.628C5.984 5.628 6.024 5.668 6.024 5.748V5.796C6.024 6.108 5.924 6.36 5.724 6.552C5.524 6.736 5.256 6.828 4.92 6.828ZM14.0224 7.944C14.0144 7.96 14.0144 7.976 14.0224 7.992C14.0304 8 14.0424 8.004 14.0584 8.004H16.8064C16.8864 8.004 16.9264 8.044 16.9264 8.124V8.88C16.9264 8.96 16.8864 9 16.8064 9H12.7744C12.6944 9 12.6544 8.96 12.6544 8.88V8.088C12.6544 8.024 12.6704 7.972 12.7024 7.932L13.0744 7.38C13.8344 6.284 14.4224 5.396 14.8384 4.716C15.3184 3.9 15.5584 3.22 15.5584 2.676C15.5584 2.316 15.4744 2.032 15.3064 1.824C15.1464 1.608 14.9344 1.5 14.6704 1.5C14.4064 1.5 14.1944 1.604 14.0344 1.812C13.8744 2.02 13.7984 2.296 13.8064 2.64V3.12C13.8064 3.2 13.7664 3.24 13.6864 3.24H12.7504C12.6704 3.24 12.6304 3.2 12.6304 3.12V2.604C12.6544 1.972 12.8584 1.464 13.2424 1.08C13.6264 0.696 14.1184 0.504 14.7184 0.504C15.3184 0.504 15.8024 0.704 16.1704 1.104C16.5384 1.504 16.7224 2.032 16.7224 2.688C16.7224 3.08 16.6504 3.48 16.5064 3.888C16.3704 4.288 16.1584 4.72 15.8704 5.184C15.6704 5.504 15.2504 6.14 14.6104 7.092L14.0224 7.944ZM19.8908 9.12C19.2428 9.12 18.7228 8.916 18.3308 8.508C17.9388 8.1 17.7428 7.556 17.7428 6.876V2.724C17.7428 2.044 17.9388 1.5 18.3308 1.092C18.7228 0.684 19.2428 0.48 19.8908 0.48C20.5388 0.48 21.0588 0.684 21.4508 1.092C21.8508 1.5 22.0508 2.044 22.0508 2.724V6.876C22.0508 7.556 21.8508 8.1 21.4508 8.508C21.0588 8.916 20.5388 9.12 19.8908 9.12ZM19.8908 8.124C20.1948 8.124 20.4388 8.016 20.6228 7.8C20.8068 7.584 20.8988 7.3 20.8988 6.948V2.652C20.8988 2.3 20.8068 2.016 20.6228 1.8C20.4388 1.584 20.1948 1.476 19.8908 1.476C19.5948 1.476 19.3548 1.584 19.1708 1.8C18.9868 2.016 18.8948 2.3 18.8948 2.652V6.948C18.8948 7.3 18.9868 7.584 19.1708 7.8C19.3548 8.016 19.5948 8.124 19.8908 8.124ZM24.37 7.944C24.362 7.96 24.362 7.976 24.37 7.992C24.378 8 24.39 8.004 24.406 8.004H27.154C27.234 8.004 27.274 8.044 27.274 8.124V8.88C27.274 8.96 27.234 9 27.154 9H23.122C23.042 9 23.002 8.96 23.002 8.88V8.088C23.002 8.024 23.018 7.972 23.05 7.932L23.422 7.38C24.182 6.284 24.77 5.396 25.186 4.716C25.666 3.9 25.906 3.22 25.906 2.676C25.906 2.316 25.822 2.032 25.654 1.824C25.494 1.608 25.282 1.5 25.018 1.5C24.754 1.5 24.542 1.604 24.382 1.812C24.222 2.02 24.146 2.296 24.154 2.64V3.12C24.154 3.2 24.114 3.24 24.034 3.24H23.098C23.018 3.24 22.978 3.2 22.978 3.12V2.604C23.002 1.972 23.206 1.464 23.59 1.08C23.974 0.696 24.466 0.504 25.066 0.504C25.666 0.504 26.15 0.704 26.518 1.104C26.886 1.504 27.07 2.032 27.07 2.688C27.07 3.08 26.998 3.48 26.854 3.888C26.718 4.288 26.506 4.72 26.218 5.184C26.018 5.504 25.598 6.14 24.958 7.092L24.37 7.944ZM32.1225 5.412C32.1865 5.716 32.2185 6.052 32.2185 6.42C32.2185 6.724 32.1985 7.028 32.1585 7.332C32.1025 7.9 31.8985 8.336 31.5465 8.64C31.1945 8.944 30.7305 9.096 30.1545 9.096C29.5945 9.096 29.1425 8.948 28.7985 8.652C28.4545 8.356 28.2385 7.916 28.1505 7.332L28.1145 6.972C28.1145 6.892 28.1545 6.852 28.2345 6.852H29.1465C29.2265 6.852 29.2665 6.892 29.2665 6.972L29.3025 7.236C29.4065 7.812 29.6905 8.1 30.1545 8.1C30.3785 8.1 30.5625 8.028 30.7065 7.884C30.8505 7.74 30.9465 7.532 30.9945 7.26C31.0425 7.02 31.0665 6.74 31.0665 6.42C31.0665 6.084 31.0345 5.788 30.9705 5.532C30.9145 5.292 30.8145 5.108 30.6705 4.98C30.5345 4.852 30.3625 4.788 30.1545 4.788C29.6825 4.788 29.3905 5.016 29.2785 5.472C29.2545 5.544 29.2105 5.58 29.1465 5.58H28.2225C28.1425 5.58 28.1025 5.54 28.1025 5.46V0.719999C28.1025 0.639999 28.1425 0.599999 28.2225 0.599999H31.9305C32.0105 0.599999 32.0505 0.639999 32.0505 0.719999V1.476C32.0505 1.556 32.0105 1.596 31.9305 1.596H29.3025C29.2705 1.596 29.2545 1.612 29.2545 1.644V4.284C29.2545 4.3 29.2585 4.312 29.2665 4.32C29.2825 4.32 29.2985 4.312 29.3145 4.296C29.4425 4.136 29.6065 4.012 29.8065 3.924C30.0065 3.828 30.2305 3.78 30.4785 3.78C30.9345 3.78 31.3025 3.924 31.5825 4.212C31.8705 4.492 32.0505 4.892 32.1225 5.412ZM39.1319 0.719999C39.1319 0.639999 39.1719 0.599999 39.2519 0.599999H40.1519C40.2319 0.599999 40.2719 0.639999 40.2719 0.719999V8.88C40.2719 8.96 40.2319 9 40.1519 9H39.1199C39.0559 9 39.0119 8.968 38.9879 8.904L36.9479 3.42C36.9399 3.404 36.9279 3.4 36.9119 3.408C36.8959 3.408 36.8879 3.416 36.8879 3.432L36.8999 8.88C36.8999 8.96 36.8599 9 36.7799 9H35.8679C35.7879 9 35.7479 8.96 35.7479 8.88V0.719999C35.7479 0.639999 35.7879 0.599999 35.8679 0.599999H36.8879C36.9519 0.599999 36.9959 0.631999 37.0199 0.696L39.0719 6.18C39.0799 6.204 39.0919 6.216 39.1079 6.216C39.1239 6.208 39.1319 6.192 39.1319 6.168V0.719999ZM42.2756 1.932C42.0516 1.932 41.8676 1.86 41.7236 1.716C41.5796 1.572 41.5076 1.388 41.5076 1.164C41.5076 0.939999 41.5796 0.755999 41.7236 0.611999C41.8676 0.468 42.0516 0.396 42.2756 0.396C42.5076 0.396 42.6916 0.468 42.8276 0.611999C42.9716 0.747999 43.0436 0.931999 43.0436 1.164C43.0436 1.388 42.9716 1.572 42.8276 1.716C42.6836 1.86 42.4996 1.932 42.2756 1.932ZM41.8316 9C41.7516 9 41.7116 8.96 41.7116 8.88V3.012C41.7116 2.932 41.7516 2.892 41.8316 2.892H42.7436C42.8236 2.892 42.8636 2.932 42.8636 3.012V8.88C42.8636 8.96 42.8236 9 42.7436 9H41.8316ZM46.6186 2.808C47.1226 2.808 47.5066 2.98 47.7706 3.324C48.0426 3.66 48.1786 4.14 48.1786 4.764V8.88C48.1786 8.96 48.1386 9 48.0586 9H47.1466C47.0666 9 47.0266 8.96 47.0266 8.88V4.86C47.0266 4.524 46.9546 4.264 46.8106 4.08C46.6666 3.896 46.4666 3.804 46.2106 3.804C45.9466 3.804 45.7386 3.896 45.5866 4.08C45.4426 4.256 45.3626 4.508 45.3466 4.836C45.3466 4.884 45.3426 4.908 45.3346 4.908V8.88C45.3346 8.96 45.2946 9 45.2146 9H44.3026C44.2226 9 44.1826 8.96 44.1826 8.88V0.719999C44.1826 0.639999 44.2226 0.599999 44.3026 0.599999H45.2146C45.2946 0.599999 45.3346 0.639999 45.3346 0.719999V3.336C45.3346 3.352 45.3426 3.364 45.3586 3.372C45.3746 3.372 45.3906 3.36 45.4066 3.336C45.6946 2.984 46.0986 2.808 46.6186 2.808ZM51.2823 9.096C50.6583 9.096 50.1623 8.924 49.7943 8.58C49.4343 8.228 49.2543 7.764 49.2543 7.188V4.704C49.2543 4.136 49.4383 3.676 49.8063 3.324C50.1743 2.972 50.6663 2.796 51.2823 2.796C51.9063 2.796 52.4023 2.972 52.7703 3.324C53.1383 3.676 53.3223 4.136 53.3223 4.704V7.188C53.3223 7.764 53.1383 8.228 52.7703 8.58C52.4023 8.924 51.9063 9.096 51.2823 9.096ZM51.2823 8.088C51.5383 8.088 51.7503 8 51.9183 7.824C52.0863 7.64 52.1703 7.4 52.1703 7.104V4.776C52.1703 4.488 52.0863 4.252 51.9183 4.068C51.7503 3.884 51.5383 3.792 51.2823 3.792C51.0263 3.792 50.8143 3.884 50.6463 4.068C50.4863 4.252 50.4063 4.488 50.4063 4.776V7.104C50.4063 7.4 50.4863 7.64 50.6463 7.824C50.8143 8 51.0263 8.088 51.2823 8.088ZM56.8842 2.808C57.3882 2.808 57.7722 2.98 58.0362 3.324C58.3082 3.66 58.4442 4.14 58.4442 4.764V8.88C58.4442 8.96 58.4042 9 58.3242 9H57.4122C57.3322 9 57.2922 8.96 57.2922 8.88V4.86C57.2922 4.524 57.2202 4.264 57.0762 4.08C56.9322 3.896 56.7322 3.804 56.4762 3.804C56.2122 3.804 56.0042 3.896 55.8522 4.08C55.7082 4.256 55.6282 4.508 55.6122 4.836C55.6122 4.884 55.6082 4.908 55.6002 4.908V8.88C55.6002 8.96 55.5602 9 55.4802 9H54.5682C54.4882 9 54.4482 8.96 54.4482 8.88V3.012C54.4482 2.932 54.4882 2.892 54.5682 2.892H55.4802C55.5602 2.892 55.6002 2.932 55.6002 3.012V3.336C55.6002 3.352 55.6082 3.364 55.6242 3.372C55.6402 3.372 55.6562 3.36 55.6722 3.336C55.9602 2.984 56.3642 2.808 56.8842 2.808ZM60.087 9C59.863 9 59.679 8.928 59.535 8.784C59.391 8.64 59.319 8.456 59.319 8.232C59.319 8.008 59.391 7.824 59.535 7.68C59.679 7.536 59.863 7.464 60.087 7.464C60.311 7.464 60.495 7.536 60.639 7.68C60.783 7.824 60.855 8.008 60.855 8.232C60.855 8.456 60.783 8.64 60.639 8.784C60.495 8.928 60.311 9 60.087 9ZM67.7351 9C67.6631 9 67.6191 8.964 67.6031 8.892L67.3391 7.512C67.3391 7.496 67.3311 7.484 67.3151 7.476C67.3071 7.468 67.2951 7.464 67.2791 7.464H65.3231C65.3071 7.464 65.2911 7.468 65.2751 7.476C65.2671 7.484 65.2631 7.496 65.2631 7.512L65.0111 8.892C65.0031 8.964 64.9591 9 64.8791 9H63.9671C63.9271 9 63.8951 8.988 63.8711 8.964C63.8551 8.94 63.8511 8.908 63.8591 8.868L65.6471 0.707999C65.6631 0.635999 65.7071 0.599999 65.7791 0.599999H66.8471C66.9271 0.599999 66.9711 0.635999 66.9791 0.707999L68.7791 8.868V8.892C68.7791 8.964 68.7431 9 68.6711 9H67.7351ZM65.4671 6.504C65.4671 6.536 65.4791 6.552 65.5031 6.552H67.0991C67.1231 6.552 67.1351 6.536 67.1351 6.504L66.3191 2.244C66.3111 2.228 66.3031 2.22 66.2951 2.22C66.2871 2.22 66.2791 2.228 66.2711 2.244L65.4671 6.504ZM69.6257 9C69.5457 9 69.5057 8.96 69.5057 8.88V0.719999C69.5057 0.639999 69.5457 0.599999 69.6257 0.599999H70.5377C70.6177 0.599999 70.6577 0.639999 70.6577 0.719999V8.88C70.6577 8.96 70.6177 9 70.5377 9H69.6257ZM71.9226 9C71.8426 9 71.8026 8.96 71.8026 8.88V0.719999C71.8026 0.639999 71.8426 0.599999 71.9226 0.599999H72.8346C72.9146 0.599999 72.9546 0.639999 72.9546 0.719999V8.88C72.9546 8.96 72.9146 9 72.8346 9H71.9226ZM78.8658 2.832C79.0658 2.832 79.2378 2.876 79.3818 2.964C79.4378 2.996 79.4578 3.048 79.4418 3.12L79.2618 4.032C79.2538 4.104 79.2058 4.128 79.1178 4.104C79.0138 4.064 78.9018 4.044 78.7818 4.044C78.7338 4.044 78.6618 4.052 78.5658 4.068C78.3178 4.092 78.1098 4.228 77.9418 4.476C77.7818 4.724 77.7018 5.024 77.7018 5.376V8.88C77.7018 8.96 77.6618 9 77.5818 9H76.6698C76.5898 9 76.5498 8.96 76.5498 8.88V3.012C76.5498 2.932 76.5898 2.892 76.6698 2.892H77.5818C77.6618 2.892 77.7018 2.932 77.7018 3.012V3.708C77.7018 3.732 77.7058 3.748 77.7138 3.756C77.7298 3.756 77.7418 3.744 77.7498 3.72C77.9818 3.128 78.3538 2.832 78.8658 2.832ZM80.8303 1.932C80.6063 1.932 80.4223 1.86 80.2783 1.716C80.1343 1.572 80.0623 1.388 80.0623 1.164C80.0623 0.939999 80.1343 0.755999 80.2783 0.611999C80.4223 0.468 80.6063 0.396 80.8303 0.396C81.0623 0.396 81.2463 0.468 81.3823 0.611999C81.5263 0.747999 81.5983 0.931999 81.5983 1.164C81.5983 1.388 81.5263 1.572 81.3823 1.716C81.2383 1.86 81.0543 1.932 80.8303 1.932ZM80.3863 9C80.3063 9 80.2663 8.96 80.2663 8.88V3.012C80.2663 2.932 80.3063 2.892 80.3863 2.892H81.2983C81.3783 2.892 81.4183 2.932 81.4183 3.012V8.88C81.4183 8.96 81.3783 9 81.2983 9H80.3863ZM85.4973 3.012C85.4973 2.932 85.5373 2.892 85.6173 2.892H86.5293C86.6093 2.892 86.6493 2.932 86.6493 3.012V8.82C86.6493 9.66 86.4573 10.308 86.0733 10.764C85.6893 11.228 85.0293 11.46 84.0933 11.46L83.7693 11.448C83.6893 11.44 83.6493 11.396 83.6493 11.316V10.548C83.6493 10.468 83.6933 10.428 83.7813 10.428C84.4373 10.452 84.8853 10.32 85.1253 10.032C85.3733 9.752 85.4973 9.312 85.4973 8.712V8.46C85.4973 8.444 85.4893 8.436 85.4733 8.436C85.4653 8.428 85.4533 8.432 85.4373 8.448C85.1653 8.816 84.7773 9 84.2733 9C83.7453 9 83.3373 8.832 83.0493 8.496C82.7693 8.152 82.6293 7.688 82.6293 7.104V4.704C82.6293 4.112 82.7733 3.648 83.0613 3.312C83.3493 2.968 83.7533 2.796 84.2733 2.796C84.7933 2.796 85.1813 2.98 85.4373 3.348C85.4533 3.364 85.4653 3.368 85.4733 3.36C85.4893 3.352 85.4973 3.34 85.4973 3.324V3.012ZM84.6453 8.004C84.9013 8.004 85.1053 7.916 85.2573 7.74C85.4173 7.556 85.4973 7.32 85.4973 7.032V4.776C85.4973 4.488 85.4173 4.252 85.2573 4.068C85.1053 3.884 84.9013 3.792 84.6453 3.792C84.3893 3.792 84.1813 3.884 84.0213 4.068C83.8613 4.252 83.7813 4.488 83.7813 4.776V7.032C83.7813 7.32 83.8613 7.556 84.0213 7.74C84.1813 7.916 84.3893 8.004 84.6453 8.004ZM90.2475 2.808C90.7515 2.808 91.1355 2.98 91.3995 3.324C91.6715 3.66 91.8075 4.14 91.8075 4.764V8.88C91.8075 8.96 91.7675 9 91.6875 9H90.7755C90.6955 9 90.6555 8.96 90.6555 8.88V4.86C90.6555 4.524 90.5835 4.264 90.4395 4.08C90.2955 3.896 90.0955 3.804 89.8395 3.804C89.5755 3.804 89.3675 3.896 89.2155 4.08C89.0715 4.256 88.9915 4.508 88.9755 4.836C88.9755 4.884 88.9715 4.908 88.9635 4.908V8.88C88.9635 8.96 88.9235 9 88.8435 9H87.9315C87.8515 9 87.8115 8.96 87.8115 8.88V0.719999C87.8115 0.639999 87.8515 0.599999 87.9315 0.599999H88.8435C88.9235 0.599999 88.9635 0.639999 88.9635 0.719999V3.336C88.9635 3.352 88.9715 3.364 88.9875 3.372C89.0035 3.372 89.0195 3.36 89.0355 3.336C89.3235 2.984 89.7275 2.808 90.2475 2.808ZM95.3792 3.612C95.3792 3.692 95.3392 3.732 95.2592 3.732H94.4192C94.3872 3.732 94.3712 3.748 94.3712 3.78V7.152C94.3712 7.472 94.4272 7.696 94.5392 7.824C94.6512 7.944 94.8272 8 95.0672 7.992H95.1752C95.2552 7.992 95.2952 8.032 95.2952 8.112V8.88C95.2952 8.96 95.2552 9 95.1752 9H94.8032C94.2912 9 93.9032 8.9 93.6392 8.7C93.3832 8.5 93.2552 8.12 93.2552 7.56V3.78C93.2552 3.748 93.2392 3.732 93.2072 3.732H92.7392C92.6592 3.732 92.6192 3.692 92.6192 3.612V3.012C92.6192 2.932 92.6592 2.892 92.7392 2.892H93.2072C93.2392 2.892 93.2552 2.876 93.2552 2.844V1.488C93.2552 1.408 93.2952 1.368 93.3752 1.368H94.2512C94.3312 1.368 94.3712 1.408 94.3712 1.488V2.844C94.3712 2.876 94.3872 2.892 94.4192 2.892H95.2592C95.3392 2.892 95.3792 2.932 95.3792 3.012V3.612ZM101.014 2.832C101.214 2.832 101.386 2.876 101.53 2.964C101.586 2.996 101.606 3.048 101.59 3.12L101.41 4.032C101.402 4.104 101.354 4.128 101.266 4.104C101.162 4.064 101.05 4.044 100.93 4.044C100.882 4.044 100.81 4.052 100.714 4.068C100.466 4.092 100.258 4.228 100.09 4.476C99.9302 4.724 99.8502 5.024 99.8502 5.376V8.88C99.8502 8.96 99.8102 9 99.7302 9H98.8182C98.7382 9 98.6982 8.96 98.6982 8.88V3.012C98.6982 2.932 98.7382 2.892 98.8182 2.892H99.7302C99.8102 2.892 99.8502 2.932 99.8502 3.012V3.708C99.8502 3.732 99.8542 3.748 99.8622 3.756C99.8782 3.756 99.8902 3.744 99.8982 3.72C100.13 3.128 100.502 2.832 101.014 2.832ZM106.208 6.3C106.208 6.38 106.168 6.42 106.088 6.42H103.376C103.344 6.42 103.328 6.436 103.328 6.468V7.116C103.328 7.404 103.408 7.64 103.568 7.824C103.728 8.008 103.936 8.1 104.192 8.1C104.416 8.1 104.604 8.032 104.756 7.896C104.908 7.76 105.004 7.584 105.044 7.368C105.068 7.304 105.112 7.272 105.176 7.272L106.064 7.32C106.104 7.32 106.132 7.332 106.148 7.356C106.172 7.38 106.18 7.408 106.172 7.44C106.116 7.96 105.916 8.368 105.572 8.664C105.236 8.952 104.776 9.096 104.192 9.096C103.576 9.096 103.084 8.924 102.716 8.58C102.356 8.236 102.176 7.776 102.176 7.2V4.704C102.176 4.136 102.356 3.676 102.716 3.324C103.084 2.972 103.576 2.796 104.192 2.796C104.816 2.796 105.308 2.972 105.668 3.324C106.028 3.676 106.208 4.136 106.208 4.704V6.3ZM104.192 3.792C103.936 3.792 103.728 3.884 103.568 4.068C103.408 4.252 103.328 4.488 103.328 4.776V5.412C103.328 5.444 103.344 5.46 103.376 5.46H105.02C105.052 5.46 105.068 5.444 105.068 5.412V4.776C105.068 4.488 104.988 4.252 104.828 4.068C104.668 3.884 104.456 3.792 104.192 3.792ZM109.005 9.072C108.405 9.072 107.929 8.928 107.577 8.64C107.233 8.344 107.061 7.948 107.061 7.452V7.344C107.061 7.264 107.101 7.224 107.181 7.224H108.033C108.113 7.224 108.153 7.264 108.153 7.344V7.428C108.153 7.644 108.237 7.828 108.405 7.98C108.573 8.124 108.781 8.196 109.029 8.196C109.269 8.196 109.461 8.124 109.605 7.98C109.757 7.836 109.833 7.652 109.833 7.428C109.833 7.252 109.781 7.104 109.677 6.984C109.573 6.864 109.449 6.772 109.305 6.708C109.169 6.636 108.957 6.54 108.669 6.42C108.357 6.284 108.097 6.152 107.889 6.024C107.689 5.896 107.509 5.712 107.349 5.472C107.189 5.232 107.109 4.928 107.109 4.56C107.109 4.016 107.277 3.592 107.613 3.288C107.957 2.984 108.417 2.832 108.993 2.832C109.585 2.832 110.049 2.988 110.385 3.3C110.729 3.612 110.901 4.036 110.901 4.572V4.608C110.901 4.688 110.861 4.728 110.781 4.728H109.953C109.873 4.728 109.833 4.688 109.833 4.608V4.524C109.833 4.308 109.757 4.124 109.605 3.972C109.453 3.82 109.257 3.744 109.017 3.744C108.769 3.744 108.573 3.82 108.429 3.972C108.285 4.124 108.213 4.308 108.213 4.524C108.213 4.692 108.261 4.832 108.357 4.944C108.453 5.056 108.569 5.148 108.705 5.22C108.841 5.284 109.057 5.38 109.353 5.508C109.681 5.652 109.953 5.792 110.169 5.928C110.385 6.056 110.573 6.24 110.733 6.48C110.901 6.72 110.985 7.02 110.985 7.38C110.985 7.9 110.805 8.312 110.445 8.616C110.093 8.92 109.613 9.072 109.005 9.072ZM115.829 6.3C115.829 6.38 115.789 6.42 115.709 6.42H112.997C112.965 6.42 112.949 6.436 112.949 6.468V7.116C112.949 7.404 113.029 7.64 113.189 7.824C113.349 8.008 113.557 8.1 113.813 8.1C114.037 8.1 114.225 8.032 114.377 7.896C114.529 7.76 114.625 7.584 114.665 7.368C114.689 7.304 114.733 7.272 114.797 7.272L115.685 7.32C115.725 7.32 115.753 7.332 115.769 7.356C115.793 7.38 115.801 7.408 115.793 7.44C115.737 7.96 115.537 8.368 115.193 8.664C114.857 8.952 114.397 9.096 113.813 9.096C113.197 9.096 112.705 8.924 112.337 8.58C111.977 8.236 111.797 7.776 111.797 7.2V4.704C111.797 4.136 111.977 3.676 112.337 3.324C112.705 2.972 113.197 2.796 113.813 2.796C114.437 2.796 114.929 2.972 115.289 3.324C115.649 3.676 115.829 4.136 115.829 4.704V6.3ZM113.813 3.792C113.557 3.792 113.349 3.884 113.189 4.068C113.029 4.252 112.949 4.488 112.949 4.776V5.412C112.949 5.444 112.965 5.46 112.997 5.46H114.641C114.673 5.46 114.689 5.444 114.689 5.412V4.776C114.689 4.488 114.609 4.252 114.449 4.068C114.289 3.884 114.077 3.792 113.813 3.792ZM119.225 2.832C119.425 2.832 119.597 2.876 119.741 2.964C119.797 2.996 119.817 3.048 119.801 3.12L119.621 4.032C119.613 4.104 119.565 4.128 119.477 4.104C119.373 4.064 119.261 4.044 119.141 4.044C119.093 4.044 119.021 4.052 118.925 4.068C118.677 4.092 118.469 4.228 118.301 4.476C118.141 4.724 118.061 5.024 118.061 5.376V8.88C118.061 8.96 118.021 9 117.941 9H117.029C116.949 9 116.909 8.96 116.909 8.88V3.012C116.909 2.932 116.949 2.892 117.029 2.892H117.941C118.021 2.892 118.061 2.932 118.061 3.012V3.708C118.061 3.732 118.065 3.748 118.073 3.756C118.089 3.756 118.101 3.744 118.109 3.72C118.341 3.128 118.713 2.832 119.225 2.832ZM121.931 9C121.859 9 121.815 8.964 121.799 8.892L120.323 3.024L120.311 2.976C120.311 2.92 120.347 2.892 120.419 2.892H121.439C121.519 2.892 121.563 2.928 121.571 3L122.435 7.116C122.443 7.14 122.451 7.152 122.459 7.152C122.467 7.152 122.475 7.14 122.483 7.116L123.335 3C123.351 2.928 123.395 2.892 123.467 2.892L124.487 2.904C124.527 2.904 124.555 2.916 124.571 2.94C124.595 2.964 124.599 2.996 124.583 3.036L123.119 8.892C123.111 8.964 123.067 9 122.987 9H121.931ZM129.282 6.3C129.282 6.38 129.242 6.42 129.162 6.42H126.45C126.418 6.42 126.402 6.436 126.402 6.468V7.116C126.402 7.404 126.482 7.64 126.642 7.824C126.802 8.008 127.01 8.1 127.266 8.1C127.49 8.1 127.678 8.032 127.83 7.896C127.982 7.76 128.078 7.584 128.118 7.368C128.142 7.304 128.186 7.272 128.25 7.272L129.138 7.32C129.178 7.32 129.206 7.332 129.222 7.356C129.246 7.38 129.254 7.408 129.246 7.44C129.19 7.96 128.99 8.368 128.646 8.664C128.31 8.952 127.85 9.096 127.266 9.096C126.65 9.096 126.158 8.924 125.79 8.58C125.43 8.236 125.25 7.776 125.25 7.2V4.704C125.25 4.136 125.43 3.676 125.79 3.324C126.158 2.972 126.65 2.796 127.266 2.796C127.89 2.796 128.382 2.972 128.742 3.324C129.102 3.676 129.282 4.136 129.282 4.704V6.3ZM127.266 3.792C127.01 3.792 126.802 3.884 126.642 4.068C126.482 4.252 126.402 4.488 126.402 4.776V5.412C126.402 5.444 126.418 5.46 126.45 5.46H128.094C128.126 5.46 128.142 5.444 128.142 5.412V4.776C128.142 4.488 128.062 4.252 127.902 4.068C127.742 3.884 127.53 3.792 127.266 3.792ZM133.122 0.719999C133.122 0.639999 133.162 0.599999 133.242 0.599999H134.154C134.234 0.599999 134.274 0.639999 134.274 0.719999V8.88C134.274 8.96 134.234 9 134.154 9H133.242C133.162 9 133.122 8.96 133.122 8.88V8.688C133.122 8.672 133.114 8.66 133.098 8.652C133.09 8.644 133.078 8.648 133.062 8.664C132.91 8.808 132.738 8.916 132.546 8.988C132.354 9.06 132.162 9.096 131.97 9.096C131.442 9.096 131.022 8.924 130.71 8.58C130.406 8.228 130.254 7.768 130.254 7.2V4.704C130.254 4.112 130.406 3.648 130.71 3.312C131.022 2.968 131.442 2.796 131.97 2.796C132.162 2.796 132.354 2.832 132.546 2.904C132.738 2.976 132.91 3.084 133.062 3.228C133.078 3.244 133.09 3.248 133.098 3.24C133.114 3.232 133.122 3.22 133.122 3.204V0.719999ZM132.27 8.1C132.494 8.1 132.682 8.028 132.834 7.884C132.994 7.732 133.09 7.536 133.122 7.296V4.596C133.09 4.356 132.994 4.164 132.834 4.02C132.682 3.868 132.494 3.792 132.27 3.792C132.014 3.792 131.802 3.884 131.634 4.068C131.474 4.252 131.394 4.488 131.394 4.776V7.116C131.394 7.404 131.474 7.64 131.634 7.824C131.802 8.008 132.014 8.1 132.27 8.1ZM136.118 9C135.894 9 135.71 8.928 135.566 8.784C135.422 8.64 135.35 8.456 135.35 8.232C135.35 8.008 135.422 7.824 135.566 7.68C135.71 7.536 135.894 7.464 136.118 7.464C136.342 7.464 136.526 7.536 136.67 7.68C136.814 7.824 136.886 8.008 136.886 8.232C136.886 8.456 136.814 8.64 136.67 8.784C136.526 8.928 136.342 9 136.118 9Z" fill="black"/>
</svg>
