<svg width="27" height="31" viewBox="0 0 27 31" fill="none" xmlns="http://www.w3.org/2000/svg">
<path d="M5.78571 1.9375V3.875H2.89286C1.29576 3.875 0 5.17676 0 6.78125V9.6875H27V6.78125C27 5.17676 25.7042 3.875 24.1071 3.875H21.2143V1.9375C21.2143 0.86582 20.3525 0 19.2857 0C18.219 0 17.3571 0.86582 17.3571 1.9375V3.875H9.64286V1.9375C9.64286 0.86582 8.78103 0 7.71429 0C6.64754 0 5.78571 0.86582 5.78571 1.9375ZM27 11.625H0V28.0938C0 29.6982 1.29576 31 2.89286 31H24.1071C25.7042 31 27 29.6982 27 28.0938V11.625Z" fill="black"/>
</svg>
