<svg width="20" height="20" viewBox="0 0 20 20" fill="none" xmlns="http://www.w3.org/2000/svg">
<g clip-path="url(#clip0_47_187)">
<path d="M20 10C20 4.4772 15.5228 0 10 0C4.4772 0 0 4.4772 0 10C0 14.6896 3.2288 18.6248 7.5844 19.7056V13.056H5.5224V10H7.5844V8.6832C7.5844 5.2796 9.1248 3.702 12.4664 3.702C13.1 3.702 14.1932 3.8264 14.6404 3.9504V6.7204C14.4044 6.6956 13.9944 6.6832 13.4852 6.6832C11.8456 6.6832 11.212 7.3044 11.212 8.9192V10H14.4784L13.9172 13.056H11.212V19.9268C16.1636 19.3288 20.0004 15.1128 20.0004 10H20Z" fill="#000100"/>
<path d="M13.9173 13.056L14.4785 10H11.2121V8.9192C11.2121 7.3044 11.8457 6.6832 13.4853 6.6832C13.9945 6.6832 14.4045 6.6956 14.6405 6.7204V3.9504C14.1933 3.826 13.1001 3.702 12.4665 3.702C9.12486 3.702 7.58446 5.2796 7.58446 8.6832V10H5.52246V13.056H7.58446V19.7056C8.35806 19.8976 9.16726 20 10.0001 20C10.4101 20 10.8145 19.9748 11.2117 19.9268V13.056H13.9169H13.9173Z" fill="white"/>
</g>
<defs>
<clipPath id="clip0_47_187">
<rect width="20" height="20" fill="white"/>
</clipPath>
</defs>
</svg>
