<svg width="65" height="33" viewBox="0 0 65 33" fill="none" xmlns="http://www.w3.org/2000/svg">
<path d="M32.1777 7.54081H63.4593V10.2699H32.1777V7.54081ZM39.3165 23.556H56.0335V26.2851H39.3165V23.556ZM46.3477 0H49.1817V33H46.3477V0ZM45.4867 8.43852L47.9261 9.22851C46.8499 11.7661 45.5346 14.1959 43.98 16.518C42.4255 18.8161 40.7036 20.8988 38.8143 22.7661C36.9249 24.6094 34.9519 26.1295 32.8952 27.3264C32.7517 27.111 32.5604 26.8716 32.3212 26.6083C32.082 26.321 31.8429 26.0457 31.6037 25.7824C31.3885 25.519 31.1732 25.2916 30.958 25.1001C32.4647 24.3101 33.9235 23.3286 35.3346 22.1556C36.7695 20.9826 38.1207 19.6659 39.3882 18.2057C40.6797 16.7214 41.8396 15.1534 42.868 13.5016C43.8963 11.8498 44.7693 10.1621 45.4867 8.43852ZM50.0426 8.54625C50.9993 10.8205 52.2309 13.0229 53.7376 15.1534C55.2443 17.2601 56.9303 19.1632 58.7957 20.8629C60.6851 22.5386 62.6581 23.8792 64.7148 24.8847C64.4996 25.0762 64.2604 25.3036 63.9974 25.5669C63.7582 25.8303 63.5191 26.1175 63.2799 26.4287C63.0408 26.716 62.8375 26.9913 62.6701 27.2546C60.5894 26.0816 58.5925 24.5854 56.6792 22.7661C54.7899 20.9227 53.0799 18.852 51.5493 16.5539C50.0187 14.2557 48.7273 11.8618 47.675 9.37215L50.0426 8.54625Z" fill="#F2DFCA"/>
<path d="M0.286133 2.40588H23.8191V32.4255H20.9492V5.09903H3.04838V32.605H0.286133V2.40588ZM2.15155 14.8303H22.1689V17.4875H2.15155V14.8303ZM2.0798 27.5778H22.2048V30.271H2.0798V27.5778Z" fill="#F2DFCA"/>
<path d="M18.5308 6.11688L16.3911 5.87555L15.498 14.9689L17.6377 15.2102L18.5308 6.11688Z" fill="#585858"/>
<path d="M18.5308 6.11688L16.3911 5.87555L15.498 14.9689L17.6377 15.2102L18.5308 6.11688Z" fill="#585858"/>
<path d="M18.5308 6.11688L16.3911 5.87555L15.498 14.9689L17.6377 15.2102L18.5308 6.11688Z" fill="#585858"/>
<path d="M18.5308 6.11688L16.3911 5.87555L15.498 14.9689L17.6377 15.2102L18.5308 6.11688Z" fill="#585858"/>
<path d="M18.5308 6.11688L16.3911 5.87555L15.498 14.9689L17.6377 15.2102L18.5308 6.11688Z" fill="#585858"/>
<path d="M18.5308 6.11688L16.3911 5.87555L15.498 14.9689L17.6377 15.2102L18.5308 6.11688Z" fill="#5A2525"/>
<path d="M18.5308 6.11688L16.3911 5.87555L15.498 14.9689L17.6377 15.2102L18.5308 6.11688Z" stroke="#F2DFCA" stroke-width="0.3"/>
<path d="M20.8435 5.85944H18.6831V15.0062H20.8435V5.85944Z" fill="#585858"/>
<path d="M20.8435 5.85944H18.6831V15.0062H20.8435V5.85944Z" fill="#585858"/>
<path d="M20.8435 5.85944H18.6831V15.0062H20.8435V5.85944Z" fill="#585858"/>
<path d="M20.8435 5.85944H18.6831V15.0062H20.8435V5.85944Z" fill="#585858"/>
<path d="M20.8435 5.85944H18.6831V15.0062H20.8435V5.85944Z" fill="#585858"/>
<path d="M20.8435 5.85944H18.6831V15.0062H20.8435V5.85944Z" fill="#5A2525"/>
<path d="M20.8435 5.85944H18.6831V15.0062H20.8435V5.85944Z" stroke="#F2DFCA" stroke-width="0.3"/>
<path d="M12.0262 14.6466L12.0063 12.3245L3.44976 12.4074L3.46962 14.7295L12.0262 14.6466Z" fill="#585858"/>
<path d="M12.0262 14.6466L12.0063 12.3245L3.44976 12.4074L3.46962 14.7295L12.0262 14.6466Z" fill="#585858"/>
<path d="M12.0262 14.6466L12.0063 12.3245L3.44976 12.4074L3.46962 14.7295L12.0262 14.6466Z" fill="#585858"/>
<path d="M12.0262 14.6466L12.0063 12.3245L3.44976 12.4074L3.46962 14.7295L12.0262 14.6466Z" fill="#585858"/>
<path d="M12.0262 14.6466L12.0063 12.3245L3.44976 12.4074L3.46962 14.7295L12.0262 14.6466Z" fill="#585858"/>
<path d="M12.0262 14.6466L12.0063 12.3245L3.44976 12.4074L3.46962 14.7295L12.0262 14.6466Z" fill="#5A2525"/>
<path d="M12.0262 14.6466L12.0063 12.3245L3.44976 12.4074L3.46962 14.7295L12.0262 14.6466Z" stroke="#F2DFCA" stroke-width="0.3"/>
<path d="M14.9372 5.85944H12.7769V15.0062H14.9372V5.85944Z" fill="#585858"/>
<path d="M14.9372 5.85944H12.7769V15.0062H14.9372V5.85944Z" fill="#585858"/>
<path d="M14.9372 5.85944H12.7769V15.0062H14.9372V5.85944Z" fill="#585858"/>
<path d="M14.9372 5.85944H12.7769V15.0062H14.9372V5.85944Z" fill="#585858"/>
<path d="M14.9372 5.85944H12.7769V15.0062H14.9372V5.85944Z" fill="#585858"/>
<path d="M14.9372 5.85944H12.7769V15.0062H14.9372V5.85944Z" fill="#5A2525"/>
<path d="M14.9372 5.85944H12.7769V15.0062H14.9372V5.85944Z" stroke="#F2DFCA" stroke-width="0.3"/>
<path d="M5.76217 18.5192L7.90186 18.2778L8.79495 27.3712L6.65526 27.6125L5.76217 18.5192Z" fill="#585858"/>
<path d="M5.76217 18.5192L7.90186 18.2778L8.79495 27.3712L6.65526 27.6125L5.76217 18.5192Z" fill="#585858"/>
<path d="M5.76217 18.5192L7.90186 18.2778L8.79495 27.3712L6.65526 27.6125L5.76217 18.5192Z" fill="#585858"/>
<path d="M5.76217 18.5192L7.90186 18.2778L8.79495 27.3712L6.65526 27.6125L5.76217 18.5192Z" fill="#585858"/>
<path d="M5.76217 18.5192L7.90186 18.2778L8.79495 27.3712L6.65526 27.6125L5.76217 18.5192Z" fill="#585858"/>
<path d="M5.76217 18.5192L7.90186 18.2778L8.79495 27.3712L6.65526 27.6125L5.76217 18.5192Z" fill="#5A2525"/>
<path d="M5.76217 18.5192L7.90186 18.2778L8.79495 27.3712L6.65526 27.6125L5.76217 18.5192Z" stroke="#F2DFCA" stroke-width="0.3"/>
<path d="M3.44948 18.2618H5.60986V27.4085H3.44948V18.2618Z" fill="#585858"/>
<path d="M3.44948 18.2618H5.60986V27.4085H3.44948V18.2618Z" fill="#585858"/>
<path d="M3.44948 18.2618H5.60986V27.4085H3.44948V18.2618Z" fill="#585858"/>
<path d="M3.44948 18.2618H5.60986V27.4085H3.44948V18.2618Z" fill="#585858"/>
<path d="M3.44948 18.2618H5.60986V27.4085H3.44948V18.2618Z" fill="#585858"/>
<path d="M3.44948 18.2618H5.60986V27.4085H3.44948V18.2618Z" fill="#5A2525"/>
<path d="M3.44948 18.2618H5.60986V27.4085H3.44948V18.2618Z" stroke="#F2DFCA" stroke-width="0.3"/>
<path d="M18.5965 18.3123L20.5986 19.198L17.303 27.64L15.3009 26.7543L18.5965 18.3123Z" fill="#585858"/>
<path d="M18.5965 18.3123L20.5986 19.198L17.303 27.64L15.3009 26.7543L18.5965 18.3123Z" fill="#585858"/>
<path d="M18.5965 18.3123L20.5986 19.198L17.303 27.64L15.3009 26.7543L18.5965 18.3123Z" fill="#585858"/>
<path d="M18.5965 18.3123L20.5986 19.198L17.303 27.64L15.3009 26.7543L18.5965 18.3123Z" fill="#585858"/>
<path d="M18.5965 18.3123L20.5986 19.198L17.303 27.64L15.3009 26.7543L18.5965 18.3123Z" fill="#585858"/>
<path d="M18.5965 18.3123L20.5986 19.198L17.303 27.64L15.3009 26.7543L18.5965 18.3123Z" fill="#5A2525"/>
<path d="M18.5965 18.3123L20.5986 19.198L17.303 27.64L15.3009 26.7543L18.5965 18.3123Z" stroke="#F2DFCA" stroke-width="0.299965"/>
<path d="M9.10865 18.2618H11.269V27.4085H9.10865V18.2618Z" fill="#585858"/>
<path d="M9.10865 18.2618H11.269V27.4085H9.10865V18.2618Z" fill="#585858"/>
<path d="M9.10865 18.2618H11.269V27.4085H9.10865V18.2618Z" fill="#585858"/>
<path d="M9.10865 18.2618H11.269V27.4085H9.10865V18.2618Z" fill="#585858"/>
<path d="M9.10865 18.2618H11.269V27.4085H9.10865V18.2618Z" fill="#585858"/>
<path d="M9.10865 18.2618H11.269V27.4085H9.10865V18.2618Z" fill="#5A2525"/>
<path d="M9.10865 18.2618H11.269V27.4085H9.10865V18.2618Z" stroke="#F2DFCA" stroke-width="0.3"/>
</svg>
