<svg width="168" height="86" viewBox="0 0 168 86" fill="none" xmlns="http://www.w3.org/2000/svg">
<path d="M83.1112 19.6518H164.633V26.7639H83.1112V19.6518ZM101.715 61.3885H145.281V68.5005H101.715V61.3885ZM120.039 0H127.425V86H120.039V0ZM117.795 21.9913L124.153 24.0501C121.348 30.663 117.92 36.9953 113.869 43.0468C109.818 49.0359 105.33 54.4636 100.407 59.3297C95.4828 64.1335 90.341 68.095 84.981 71.2144C84.607 70.6529 84.1084 70.029 83.4852 69.3428C82.8619 68.5941 82.2387 67.8767 81.6154 67.1904C81.0545 66.5042 80.4935 65.9115 79.9326 65.4124C83.8591 63.3536 87.661 60.7958 91.3382 57.7388C95.0777 54.6819 98.5991 51.2506 101.902 47.445C105.268 43.5771 108.291 39.4908 110.971 35.1861C113.651 30.8814 115.926 26.4831 117.795 21.9913ZM129.668 22.272C132.161 28.1988 135.371 33.9383 139.298 39.4908C143.224 44.9808 147.618 49.9405 152.479 54.37C157.403 58.737 162.545 62.2307 167.905 64.8509C167.344 65.35 166.721 65.9427 166.035 66.6289C165.412 67.3152 164.789 68.0638 164.165 68.8749C163.542 69.6235 163.012 70.341 162.576 71.0272C157.154 67.9703 151.95 64.0711 146.964 59.3297C142.04 54.5259 137.584 49.1295 133.595 43.1404C129.606 37.1513 126.24 30.9126 123.498 24.4244L129.668 22.272Z" fill="#F2DFCA"/>
<path d="M0 6.2699H61.3283V84.5028H53.8492V13.2884H7.19859V84.9707H0V6.2699ZM4.86138 38.6486H57.0278V45.5735H4.86138V38.6486ZM4.67441 71.8695H57.1213V78.888H4.67441V71.8695Z" fill="#F2DFCA"/>
<rect x="0.134398" y="0.166092" width="6.09317" height="24.294" transform="matrix(0.993729 0.112082 -0.0977425 0.995198 41.6382 14.8649)" fill="#585858"/>
<rect x="0.134398" y="0.166092" width="6.09317" height="24.294" transform="matrix(0.993729 0.112082 -0.0977425 0.995198 41.6382 14.8649)" fill="#585858"/>
<rect x="0.134398" y="0.166092" width="6.09317" height="24.294" transform="matrix(0.993729 0.112082 -0.0977425 0.995198 41.6382 14.8649)" fill="#585858"/>
<rect x="0.134398" y="0.166092" width="6.09317" height="24.294" transform="matrix(0.993729 0.112082 -0.0977425 0.995198 41.6382 14.8649)" fill="#585858"/>
<rect x="0.134398" y="0.166092" width="6.09317" height="24.294" transform="matrix(0.993729 0.112082 -0.0977425 0.995198 41.6382 14.8649)" fill="#585858"/>
<rect x="0.134398" y="0.166092" width="6.09317" height="24.294" transform="matrix(0.993729 0.112082 -0.0977425 0.995198 41.6382 14.8649)" fill="#5A2525"/>
<rect x="0.134398" y="0.166092" width="6.09317" height="24.294" transform="matrix(0.993729 0.112082 -0.0977425 0.995198 41.6382 14.8649)" stroke="white" stroke-width="0.3"/>
<rect x="47.7027" y="15.0292" width="6.11191" height="24.3187" fill="#585858"/>
<rect x="47.7027" y="15.0292" width="6.11191" height="24.3187" fill="#585858"/>
<rect x="47.7027" y="15.0292" width="6.11191" height="24.3187" fill="#585858"/>
<rect x="47.7027" y="15.0292" width="6.11191" height="24.3187" fill="#585858"/>
<rect x="47.7027" y="15.0292" width="6.11191" height="24.3187" fill="#585858"/>
<rect x="47.7027" y="15.0292" width="6.11191" height="24.3187" fill="#5A2525"/>
<rect x="47.7027" y="15.0292" width="6.11191" height="24.3187" stroke="white" stroke-width="0.3"/>
<rect x="-0.148721" y="0.151461" width="6.53357" height="22.7819" transform="matrix(0.00848123 0.999964 -0.999953 0.00977405 30.9381 32.0223)" fill="#585858"/>
<rect x="-0.148721" y="0.151461" width="6.53357" height="22.7819" transform="matrix(0.00848123 0.999964 -0.999953 0.00977405 30.9381 32.0223)" fill="#585858"/>
<rect x="-0.148721" y="0.151461" width="6.53357" height="22.7819" transform="matrix(0.00848123 0.999964 -0.999953 0.00977405 30.9381 32.0223)" fill="#585858"/>
<rect x="-0.148721" y="0.151461" width="6.53357" height="22.7819" transform="matrix(0.00848123 0.999964 -0.999953 0.00977405 30.9381 32.0223)" fill="#585858"/>
<rect x="-0.148721" y="0.151461" width="6.53357" height="22.7819" transform="matrix(0.00848123 0.999964 -0.999953 0.00977405 30.9381 32.0223)" fill="#585858"/>
<rect x="-0.148721" y="0.151461" width="6.53357" height="22.7819" transform="matrix(0.00848123 0.999964 -0.999953 0.00977405 30.9381 32.0223)" fill="#5A2525"/>
<rect x="-0.148721" y="0.151461" width="6.53357" height="22.7819" transform="matrix(0.00848123 0.999964 -0.999953 0.00977405 30.9381 32.0223)" stroke="white" stroke-width="0.3"/>
<rect x="32.3102" y="15.0292" width="6.11191" height="24.3187" fill="#585858"/>
<rect x="32.3102" y="15.0292" width="6.11191" height="24.3187" fill="#585858"/>
<rect x="32.3102" y="15.0292" width="6.11191" height="24.3187" fill="#585858"/>
<rect x="32.3102" y="15.0292" width="6.11191" height="24.3187" fill="#585858"/>
<rect x="32.3102" y="15.0292" width="6.11191" height="24.3187" fill="#585858"/>
<rect x="32.3102" y="15.0292" width="6.11191" height="24.3187" fill="#5A2525"/>
<rect x="32.3102" y="15.0292" width="6.11191" height="24.3187" stroke="white" stroke-width="0.3"/>
<rect x="-0.134398" y="0.166092" width="6.09317" height="24.294" transform="matrix(-0.993729 0.112082 0.0977425 0.995198 19.9121 47.2162)" fill="#585858"/>
<rect x="-0.134398" y="0.166092" width="6.09317" height="24.294" transform="matrix(-0.993729 0.112082 0.0977425 0.995198 19.9121 47.2162)" fill="#585858"/>
<rect x="-0.134398" y="0.166092" width="6.09317" height="24.294" transform="matrix(-0.993729 0.112082 0.0977425 0.995198 19.9121 47.2162)" fill="#585858"/>
<rect x="-0.134398" y="0.166092" width="6.09317" height="24.294" transform="matrix(-0.993729 0.112082 0.0977425 0.995198 19.9121 47.2162)" fill="#585858"/>
<rect x="-0.134398" y="0.166092" width="6.09317" height="24.294" transform="matrix(-0.993729 0.112082 0.0977425 0.995198 19.9121 47.2162)" fill="#585858"/>
<rect x="-0.134398" y="0.166092" width="6.09317" height="24.294" transform="matrix(-0.993729 0.112082 0.0977425 0.995198 19.9121 47.2162)" fill="#5A2525"/>
<rect x="-0.134398" y="0.166092" width="6.09317" height="24.294" transform="matrix(-0.993729 0.112082 0.0977425 0.995198 19.9121 47.2162)" stroke="white" stroke-width="0.3"/>
<rect x="-0.15" y="0.15" width="6.11191" height="24.3187" transform="matrix(-1 0 0 1 13.9651 47.2003)" fill="#585858"/>
<rect x="-0.15" y="0.15" width="6.11191" height="24.3187" transform="matrix(-1 0 0 1 13.9651 47.2003)" fill="#585858"/>
<rect x="-0.15" y="0.15" width="6.11191" height="24.3187" transform="matrix(-1 0 0 1 13.9651 47.2003)" fill="#585858"/>
<rect x="-0.15" y="0.15" width="6.11191" height="24.3187" transform="matrix(-1 0 0 1 13.9651 47.2003)" fill="#585858"/>
<rect x="-0.15" y="0.15" width="6.11191" height="24.3187" transform="matrix(-1 0 0 1 13.9651 47.2003)" fill="#585858"/>
<rect x="-0.15" y="0.15" width="6.11191" height="24.3187" transform="matrix(-1 0 0 1 13.9651 47.2003)" fill="#5A2525"/>
<rect x="-0.15" y="0.15" width="6.11191" height="24.3187" transform="matrix(-1 0 0 1 13.9651 47.2003)" stroke="white" stroke-width="0.3"/>
<rect x="-0.191471" y="0.0796033" width="6.2039" height="24.0353" transform="matrix(-0.911831 -0.403367 -0.36464 0.934056 53.0975 49.7517)" fill="#585858"/>
<rect x="-0.191471" y="0.0796033" width="6.2039" height="24.0353" transform="matrix(-0.911831 -0.403367 -0.36464 0.934056 53.0975 49.7517)" fill="#585858"/>
<rect x="-0.191471" y="0.0796033" width="6.2039" height="24.0353" transform="matrix(-0.911831 -0.403367 -0.36464 0.934056 53.0975 49.7517)" fill="#585858"/>
<rect x="-0.191471" y="0.0796033" width="6.2039" height="24.0353" transform="matrix(-0.911831 -0.403367 -0.36464 0.934056 53.0975 49.7517)" fill="#585858"/>
<rect x="-0.191471" y="0.0796033" width="6.2039" height="24.0353" transform="matrix(-0.911831 -0.403367 -0.36464 0.934056 53.0975 49.7517)" fill="#585858"/>
<rect x="-0.191471" y="0.0796033" width="6.2039" height="24.0353" transform="matrix(-0.911831 -0.403367 -0.36464 0.934056 53.0975 49.7517)" fill="#5A2525"/>
<rect x="-0.191471" y="0.0796033" width="6.2039" height="24.0353" transform="matrix(-0.911831 -0.403367 -0.36464 0.934056 53.0975 49.7517)" stroke="white" stroke-width="0.3"/>
<rect x="-0.15" y="0.15" width="6.11191" height="24.3187" transform="matrix(-1 0 0 1 28.7122 47.2003)" fill="#585858"/>
<rect x="-0.15" y="0.15" width="6.11191" height="24.3187" transform="matrix(-1 0 0 1 28.7122 47.2003)" fill="#585858"/>
<rect x="-0.15" y="0.15" width="6.11191" height="24.3187" transform="matrix(-1 0 0 1 28.7122 47.2003)" fill="#585858"/>
<rect x="-0.15" y="0.15" width="6.11191" height="24.3187" transform="matrix(-1 0 0 1 28.7122 47.2003)" fill="#585858"/>
<rect x="-0.15" y="0.15" width="6.11191" height="24.3187" transform="matrix(-1 0 0 1 28.7122 47.2003)" fill="#585858"/>
<rect x="-0.15" y="0.15" width="6.11191" height="24.3187" transform="matrix(-1 0 0 1 28.7122 47.2003)" fill="#5A2525"/>
<rect x="-0.15" y="0.15" width="6.11191" height="24.3187" transform="matrix(-1 0 0 1 28.7122 47.2003)" stroke="white" stroke-width="0.3"/>
</svg>
