<svg width="640" height="512" viewBox="0 0 640 512" fill="none" xmlns="http://www.w3.org/2000/svg">
<g clip-path="url(#clip0_383_2254)">
<path d="M38.7998 5.09976C28.3998 -3.10024 13.2998 -1.20024 5.09976 9.19976C-3.10024 19.5998 -1.20024 34.6998 9.19976 42.8998L601.2 506.9C611.6 515.1 626.7 513.2 634.9 502.8C643.1 492.4 641.2 477.3 630.8 469.1L525.6 386.7C565.2 346.1 592 300.6 605.5 268.3C608.8 260.4 608.8 251.6 605.5 243.7C590.6 208 559.3 156 512.5 112.6C465.5 68.7998 400.8 31.9998 320 31.9998C251.8 31.9998 195 58.2998 150.7 92.7998L38.7998 5.09976ZM189.8 123.4C226 97.6998 269.5 79.9998 320 79.9998C385.2 79.9998 438.8 109.6 479.9 147.7C518.4 183.5 545 226 558.6 256C546 284 522 322.8 487.7 356.9L433.9 314.7C443 297.1 448.1 277.2 448.1 256C448.1 185.3 390.8 128 320.1 128C287.9 128 258.4 139.9 235.9 159.5L189.8 123.4ZM394.9 284.2L313.4 220.3C317.6 211.8 320 202.1 320 192C320 186.5 319.3 181.1 318 176C318.7 176 319.3 176 320 176C364.2 176 400 211.8 400 256C400 265.9 398.2 275.4 394.9 284.2ZM404.3 414.5C378.8 425.4 350.7 432 320 432C254.8 432 201.2 402.4 160.1 364.3C121.6 328.5 94.9998 286 81.3998 256C89.6998 237.6 102.9 214.5 120.8 191.2L83.0998 161.5C60.2998 191.2 43.9998 220.8 34.4998 243.7C31.1998 251.6 31.1998 260.4 34.4998 268.3C49.3998 304 80.6998 356 127.5 399.4C174.5 443.2 239.2 480 320 480C367.8 480 409.9 467.1 446.2 447.5L404.3 414.5ZM192 256C192 326.7 249.3 384 320 384C333.3 384 346.1 382 358.2 378.2L302 334C278.5 328.6 258.9 312.8 248.3 291.7L192.2 247.5C192 250.3 191.9 253.1 191.9 256H192Z" fill="black"/>
</g>
<defs>
<clipPath id="clip0_383_2254">
<rect width="640" height="512" fill="white"/>
</clipPath>
</defs>
</svg>
