<svg width="51" height="9" viewBox="0 0 51 9" fill="none" xmlns="http://www.w3.org/2000/svg">
<g clip-path="url(#clip0_36_274)">
<path d="M35.5709 0.316406C35.4777 0.123047 35.2809 0 35.0647 0C34.8485 0 34.6533 0.123047 34.5584 0.316406L33.4281 2.64199L30.9039 3.01465C30.693 3.04629 30.5172 3.19395 30.4522 3.39609C30.3871 3.59824 30.4399 3.82148 30.591 3.9709L32.4227 5.7832L31.9902 8.34434C31.9551 8.55527 32.043 8.76973 32.217 8.89453C32.391 9.01934 32.6213 9.03516 32.8111 8.93496L35.0664 7.73086L37.3217 8.93496C37.5115 9.03516 37.7418 9.02109 37.9158 8.89453C38.0899 8.76797 38.1777 8.55527 38.1426 8.34434L37.7084 5.7832L39.5401 3.9709C39.6912 3.82148 39.7457 3.59824 39.6789 3.39609C39.6121 3.19395 39.4381 3.04629 39.2272 3.01465L36.7012 2.64199L35.5709 0.316406Z" fill="#FBB910"/>
</g>
<g clip-path="url(#clip1_36_274)">
<path d="M45.5709 0.316406C45.4777 0.123047 45.2809 0 45.0647 0C44.8485 0 44.6533 0.123047 44.5584 0.316406L43.4281 2.64199L40.9039 3.01465C40.693 3.04629 40.5172 3.19395 40.4522 3.39609C40.3871 3.59824 40.4399 3.82148 40.591 3.9709L42.4227 5.7832L41.9902 8.34434C41.9551 8.55527 42.043 8.76973 42.217 8.89453C42.391 9.01934 42.6213 9.03516 42.8111 8.93496L45.0664 7.73086L47.3217 8.93496C47.5115 9.03516 47.7418 9.02109 47.9158 8.89453C48.0899 8.76797 48.1777 8.55527 48.1426 8.34434L47.7084 5.7832L49.5401 3.9709C49.6912 3.82148 49.7457 3.59824 49.6789 3.39609C49.6121 3.19395 49.4381 3.04629 49.2272 3.01465L46.7012 2.64199L45.5709 0.316406Z" fill="#FBB910"/>
</g>
<g clip-path="url(#clip2_36_274)">
<path d="M15.5015 0.3125C15.4095 0.121528 15.2151 0 15.0015 0C14.788 0 14.5953 0.121528 14.5015 0.3125L13.3852 2.60938L10.8921 2.97743C10.6838 3.00868 10.5102 3.15451 10.446 3.35417C10.3817 3.55382 10.4338 3.77431 10.5831 3.92188L12.3921 5.71181L11.9651 8.24132C11.9303 8.44965 12.0171 8.66146 12.189 8.78472C12.3609 8.90799 12.5883 8.92361 12.7758 8.82465L15.0033 7.63542L17.2307 8.82465C17.4182 8.92361 17.6456 8.90972 17.8175 8.78472C17.9894 8.65972 18.0762 8.44965 18.0415 8.24132L17.6126 5.71181L19.4217 3.92188C19.571 3.77431 19.6248 3.55382 19.5588 3.35417C19.4928 3.15451 19.321 3.00868 19.1126 2.97743L16.6178 2.60938L15.5015 0.3125Z" fill="#FBB910"/>
</g>
<g clip-path="url(#clip3_36_274)">
<path d="M5.50152 0.3125C5.40951 0.121528 5.21506 0 5.00152 0C4.78798 0 4.59527 0.121528 4.50152 0.3125L3.3852 2.60938L0.892147 2.97743C0.683814 3.00868 0.510203 3.15451 0.445967 3.35417C0.381731 3.55382 0.433814 3.77431 0.58312 3.92188L2.39215 5.71181L1.96506 8.24132C1.93034 8.44965 2.01715 8.66146 2.18902 8.78472C2.3609 8.90799 2.58833 8.92361 2.77583 8.82465L5.00326 7.63542L7.23069 8.82465C7.41819 8.92361 7.64562 8.90972 7.81749 8.78472C7.98937 8.65972 8.07618 8.44965 8.04145 8.24132L7.61263 5.71181L9.42166 3.92188C9.57097 3.77431 9.62479 3.55382 9.55881 3.35417C9.49284 3.15451 9.32097 3.00868 9.11263 2.97743L6.61784 2.60938L5.50152 0.3125Z" fill="#FBB910"/>
</g>
<g clip-path="url(#clip4_36_274)">
<path d="M25.5709 0.316406C25.4777 0.123047 25.2809 0 25.0647 0C24.8485 0 24.6533 0.123047 24.5584 0.316406L23.4281 2.64199L20.9039 3.01465C20.693 3.04629 20.5172 3.19395 20.4522 3.39609C20.3871 3.59824 20.4399 3.82148 20.591 3.9709L22.4227 5.7832L21.9902 8.34434C21.9551 8.55527 22.043 8.76973 22.217 8.89453C22.391 9.01934 22.6213 9.03516 22.8111 8.93496L25.0664 7.73086L27.3217 8.93496C27.5115 9.03516 27.7418 9.02109 27.9158 8.89453C28.0899 8.76797 28.1777 8.55527 28.1426 8.34434L27.7084 5.7832L29.5401 3.9709C29.6912 3.82148 29.7457 3.59824 29.6789 3.39609C29.6121 3.19395 29.4381 3.04629 29.2272 3.01465L26.7012 2.64199L25.5709 0.316406Z" fill="#FBB910"/>
<g clip-path="url(#clip5_36_274)">
<path d="M25.5709 0.316406C25.4777 0.123047 25.2809 0 25.0647 0C24.8485 0 24.6533 0.123047 24.5584 0.316406L23.4281 2.64199L20.9039 3.01465C20.693 3.04629 20.5172 3.19395 20.4522 3.39609C20.3871 3.59824 20.4399 3.82148 20.591 3.9709L22.4227 5.7832L21.9902 8.34434C21.9551 8.55527 22.043 8.76973 22.217 8.89453C22.391 9.01934 22.6213 9.03516 22.8111 8.93496L25.0664 7.73086L27.3217 8.93496C27.5115 9.03516 27.7418 9.02109 27.9158 8.89453C28.0899 8.76797 28.1777 8.55527 28.1426 8.34434L27.7084 5.7832L29.5401 3.9709C29.6912 3.82148 29.7457 3.59824 29.6789 3.39609C29.6121 3.19395 29.4381 3.04629 29.2272 3.01465L26.7012 2.64199L25.5709 0.316406Z" fill="#FBB910"/>
<g clip-path="url(#clip6_36_274)">
<path d="M25.5709 0.316406C25.4777 0.123047 25.2809 0 25.0647 0C24.8485 0 24.6533 0.123047 24.5584 0.316406L23.4281 2.64199L20.9039 3.01465C20.693 3.04629 20.5172 3.19395 20.4522 3.39609C20.3871 3.59824 20.4399 3.82148 20.591 3.9709L22.4227 5.7832L21.9902 8.34434C21.9551 8.55527 22.043 8.76973 22.217 8.89453C22.391 9.01934 22.6213 9.03516 22.8111 8.93496L25.0664 7.73086L27.3217 8.93496C27.5115 9.03516 27.7418 9.02109 27.9158 8.89453C28.0899 8.76797 28.1777 8.55527 28.1426 8.34434L27.7084 5.7832L29.5401 3.9709C29.6912 3.82148 29.7457 3.59824 29.6789 3.39609C29.6121 3.19395 29.4381 3.04629 29.2272 3.01465L26.7012 2.64199L25.5709 0.316406Z" fill="#FBB910"/>
</g>
</g>
</g>
<defs>
<clipPath id="clip0_36_274">
<rect width="10.125" height="9" fill="white" transform="translate(30)"/>
</clipPath>
<clipPath id="clip1_36_274">
<rect width="10.125" height="9" fill="white" transform="translate(40)"/>
</clipPath>
<clipPath id="clip2_36_274">
<rect width="10" height="8.88889" fill="white" transform="translate(10)"/>
</clipPath>
<clipPath id="clip3_36_274">
<rect width="10" height="8.88889" fill="white"/>
</clipPath>
<clipPath id="clip4_36_274">
<rect width="10.125" height="9" fill="white" transform="translate(20)"/>
</clipPath>
<clipPath id="clip5_36_274">
<rect width="10.125" height="9" fill="white" transform="translate(20)"/>
</clipPath>
<clipPath id="clip6_36_274">
<rect width="10.125" height="9" fill="white" transform="translate(20)"/>
</clipPath>
</defs>
</svg>
