<svg width="1920" height="1080" viewBox="0 0 1920 1080" fill="none" xmlns="http://www.w3.org/2000/svg">
<g clip-path="url(#clip0_10_1108)">
<path d="M449 784C463.359 784 475 772.359 475 758C475 743.641 463.359 732 449 732C434.641 732 423 743.641 423 758C423 772.359 434.641 784 449 784Z" fill="#37718E"/>
<path d="M1199 303C1200.1 303 1201 302.105 1201 301C1201 299.895 1200.1 299 1199 299C1197.9 299 1197 299.895 1197 301C1197 302.105 1197.9 303 1199 303Z" fill="#37718E"/>
<path d="M700 266C704.971 266 709 261.971 709 257C709 252.029 704.971 248 700 248C695.029 248 691 252.029 691 257C691 261.971 695.029 266 700 266Z" fill="#37718E"/>
<path d="M1226 1006C1229.31 1006 1232 1003.31 1232 1000C1232 996.686 1229.31 994 1226 994C1222.69 994 1220 996.686 1220 1000C1220 1003.31 1222.69 1006 1226 1006Z" fill="#37718E"/>
<path d="M855 553C865.493 553 874 544.493 874 534C874 523.507 865.493 515 855 515C844.507 515 836 523.507 836 534C836 544.493 844.507 553 855 553Z" fill="#37718E"/>
<path d="M697 1065C700.314 1065 703 1062.31 703 1059C703 1055.69 700.314 1053 697 1053C693.686 1053 691 1055.69 691 1059C691 1062.31 693.686 1065 697 1065Z" fill="#37718E"/>
<path d="M766 264C779.255 264 790 253.255 790 240C790 226.745 779.255 216 766 216C752.745 216 742 226.745 742 240C742 253.255 752.745 264 766 264Z" fill="#37718E"/>
<path d="M888 1077C895.732 1077 902 1070.73 902 1063C902 1055.27 895.732 1049 888 1049C880.268 1049 874 1055.27 874 1063C874 1070.73 880.268 1077 888 1077Z" fill="#37718E"/>
<path d="M400 665C400.552 665 401 664.552 401 664C401 663.448 400.552 663 400 663C399.448 663 399 663.448 399 664C399 664.552 399.448 665 400 665Z" fill="#37718E"/>
<path d="M231 830C238.732 830 245 823.732 245 816C245 808.268 238.732 802 231 802C223.268 802 217 808.268 217 816C217 823.732 223.268 830 231 830Z" fill="#37718E"/>
<path d="M713 111C720.18 111 726 105.18 726 98C726 90.8203 720.18 85 713 85C705.82 85 700 90.8203 700 98C700 105.18 705.82 111 713 111Z" fill="#37718E"/>
<path d="M1480 555C1492.15 555 1502 545.15 1502 533C1502 520.85 1492.15 511 1480 511C1467.85 511 1458 520.85 1458 533C1458 545.15 1467.85 555 1480 555Z" fill="#37718E"/>
<path d="M289 276C302.255 276 313 265.255 313 252C313 238.745 302.255 228 289 228C275.745 228 265 238.745 265 252C265 265.255 275.745 276 289 276Z" fill="#37718E"/>
<path d="M175 662C176.105 662 177 661.105 177 660C177 658.895 176.105 658 175 658C173.895 658 173 658.895 173 660C173 661.105 173.895 662 175 662Z" fill="#37718E"/>
<path d="M1452 858C1455.87 858 1459 854.866 1459 851C1459 847.134 1455.87 844 1452 844C1448.13 844 1445 847.134 1445 851C1445 854.866 1448.13 858 1452 858Z" fill="#37718E"/>
<path d="M474 293C475.657 293 477 291.657 477 290C477 288.343 475.657 287 474 287C472.343 287 471 288.343 471 290C471 291.657 472.343 293 474 293Z" fill="#37718E"/>
<path d="M1638 1020C1641.31 1020 1644 1017.31 1644 1014C1644 1010.69 1641.31 1008 1638 1008C1634.69 1008 1632 1010.69 1632 1014C1632 1017.31 1634.69 1020 1638 1020Z" fill="#37718E"/>
<path d="M725 631C736.598 631 746 621.598 746 610C746 598.402 736.598 589 725 589C713.402 589 704 598.402 704 610C704 621.598 713.402 631 725 631Z" fill="#37718E"/>
<path d="M88 621C94.6274 621 100 615.627 100 609C100 602.373 94.6274 597 88 597C81.3726 597 76 602.373 76 609C76 615.627 81.3726 621 88 621Z" fill="#37718E"/>
<path d="M885 726C897.15 726 907 716.15 907 704C907 691.85 897.15 682 885 682C872.85 682 863 691.85 863 704C863 716.15 872.85 726 885 726Z" fill="#37718E"/>
<path d="M383 796C387.418 796 391 792.418 391 788C391 783.582 387.418 780 383 780C378.582 780 375 783.582 375 788C375 792.418 378.582 796 383 796Z" fill="#37718E"/>
<path d="M620 141C620.552 141 621 140.552 621 140C621 139.448 620.552 139 620 139C619.448 139 619 139.448 619 140C619 140.552 619.448 141 620 141Z" fill="#37718E"/>
<path d="M1327 833C1337.49 833 1346 824.493 1346 814C1346 803.507 1337.49 795 1327 795C1316.51 795 1308 803.507 1308 814C1308 824.493 1316.51 833 1327 833Z" fill="#37718E"/>
<path d="M518 929C529.046 929 538 920.046 538 909C538 897.954 529.046 889 518 889C506.954 889 498 897.954 498 909C498 920.046 506.954 929 518 929Z" fill="#37718E"/>
<path d="M1840 329C1841.1 329 1842 328.105 1842 327C1842 325.895 1841.1 325 1840 325C1838.9 325 1838 325.895 1838 327C1838 328.105 1838.9 329 1840 329Z" fill="#37718E"/>
<path d="M1278 658C1286.84 658 1294 650.837 1294 642C1294 633.163 1286.84 626 1278 626C1269.16 626 1262 633.163 1262 642C1262 650.837 1269.16 658 1278 658Z" fill="#37718E"/>
<path d="M1389 284C1402.25 284 1413 273.255 1413 260C1413 246.745 1402.25 236 1389 236C1375.75 236 1365 246.745 1365 260C1365 273.255 1375.75 284 1389 284Z" fill="#37718E"/>
<path d="M1717 8C1719.76 8 1722 5.76142 1722 3C1722 0.238576 1719.76 -2 1717 -2C1714.24 -2 1712 0.238576 1712 3C1712 5.76142 1714.24 8 1717 8Z" fill="#37718E"/>
<path d="M1245 590C1252.18 590 1258 584.18 1258 577C1258 569.82 1252.18 564 1245 564C1237.82 564 1232 569.82 1232 577C1232 584.18 1237.82 590 1245 590Z" fill="#37718E"/>
<path d="M23 617C35.1503 617 45 607.15 45 595C45 582.85 35.1503 573 23 573C10.8497 573 1 582.85 1 595C1 607.15 10.8497 617 23 617Z" fill="#37718E"/>
<path d="M1575 748C1587.7 748 1598 737.703 1598 725C1598 712.297 1587.7 702 1575 702C1562.3 702 1552 712.297 1552 725C1552 737.703 1562.3 748 1575 748Z" fill="#37718E"/>
<path d="M658 944C659.105 944 660 943.105 660 942C660 940.895 659.105 940 658 940C656.895 940 656 940.895 656 942C656 943.105 656.895 944 658 944Z" fill="#37718E"/>
<path d="M81 420C87.6274 420 93 414.627 93 408C93 401.373 87.6274 396 81 396C74.3726 396 69 401.373 69 408C69 414.627 74.3726 420 81 420Z" fill="#37718E"/>
<path d="M133 320C140.732 320 147 313.732 147 306C147 298.268 140.732 292 133 292C125.268 292 119 298.268 119 306C119 313.732 125.268 320 133 320Z" fill="#37718E"/>
<path d="M670 65C671.657 65 673 63.6569 673 62C673 60.3431 671.657 59 670 59C668.343 59 667 60.3431 667 62C667 63.6569 668.343 65 670 65Z" fill="#37718E"/>
<path d="M1724 274C1733.94 274 1742 265.941 1742 256C1742 246.059 1733.94 238 1724 238C1714.06 238 1706 246.059 1706 256C1706 265.941 1714.06 274 1724 274Z" fill="#37718E"/>
<path d="M1580 630C1587.18 630 1593 624.18 1593 617C1593 609.82 1587.18 604 1580 604C1572.82 604 1567 609.82 1567 617C1567 624.18 1572.82 630 1580 630Z" fill="#37718E"/>
<path d="M933 933C934.105 933 935 932.105 935 931C935 929.895 934.105 929 933 929C931.895 929 931 929.895 931 931C931 932.105 931.895 933 933 933Z" fill="#37718E"/>
<path d="M1503 189C1505.21 189 1507 187.209 1507 185C1507 182.791 1505.21 181 1503 181C1500.79 181 1499 182.791 1499 185C1499 187.209 1500.79 189 1503 189Z" fill="#37718E"/>
<path d="M1355 750C1357.21 750 1359 748.209 1359 746C1359 743.791 1357.21 742 1355 742C1352.79 742 1351 743.791 1351 746C1351 748.209 1352.79 750 1355 750Z" fill="#37718E"/>
<path d="M1779 1021C1781.21 1021 1783 1019.21 1783 1017C1783 1014.79 1781.21 1013 1779 1013C1776.79 1013 1775 1014.79 1775 1017C1775 1019.21 1776.79 1021 1779 1021Z" fill="#37718E"/>
<path d="M724 49C736.15 49 746 39.1503 746 27C746 14.8497 736.15 5 724 5C711.85 5 702 14.8497 702 27C702 39.1503 711.85 49 724 49Z" fill="#37718E"/>
<path d="M437 371C445.284 371 452 364.284 452 356C452 347.716 445.284 341 437 341C428.716 341 422 347.716 422 356C422 364.284 428.716 371 437 371Z" fill="#37718E"/>
<path d="M807 175C818.598 175 828 165.598 828 154C828 142.402 818.598 133 807 133C795.402 133 786 142.402 786 154C786 165.598 795.402 175 807 175Z" fill="#37718E"/>
<path d="M1486 437C1492.08 437 1497 432.075 1497 426C1497 419.925 1492.08 415 1486 415C1479.92 415 1475 419.925 1475 426C1475 432.075 1479.92 437 1486 437Z" fill="#37718E"/>
<path d="M870 900C874.418 900 878 896.418 878 892C878 887.582 874.418 884 870 884C865.582 884 862 887.582 862 892C862 896.418 865.582 900 870 900Z" fill="#37718E"/>
<path d="M906 864C918.15 864 928 854.15 928 842C928 829.85 918.15 820 906 820C893.85 820 884 829.85 884 842C884 854.15 893.85 864 906 864Z" fill="#37718E"/>
<path d="M1362 510C1373.05 510 1382 501.046 1382 490C1382 478.954 1373.05 470 1362 470C1350.95 470 1342 478.954 1342 490C1342 501.046 1350.95 510 1362 510Z" fill="#37718E"/>
<path d="M1828 886C1834.63 886 1840 880.627 1840 874C1840 867.373 1834.63 862 1828 862C1821.37 862 1816 867.373 1816 874C1816 880.627 1821.37 886 1828 886Z" fill="#37718E"/>
<path d="M1338 1075C1340.21 1075 1342 1073.21 1342 1071C1342 1068.79 1340.21 1067 1338 1067C1335.79 1067 1334 1068.79 1334 1071C1334 1073.21 1335.79 1075 1338 1075Z" fill="#37718E"/>
<path d="M273 123C276.866 123 280 119.866 280 116C280 112.134 276.866 109 273 109C269.134 109 266 112.134 266 116C266 119.866 269.134 123 273 123Z" fill="#37718E"/>
<path d="M1505 860C1508.87 860 1512 856.866 1512 853C1512 849.134 1508.87 846 1505 846C1501.13 846 1498 849.134 1498 853C1498 856.866 1501.13 860 1505 860Z" fill="#37718E"/>
<path d="M1485 665C1498.25 665 1509 654.255 1509 641C1509 627.745 1498.25 617 1485 617C1471.75 617 1461 627.745 1461 641C1461 654.255 1471.75 665 1485 665Z" fill="#37718E"/>
<path d="M1333 45C1339.63 45 1345 39.6274 1345 33C1345 26.3726 1339.63 21 1333 21C1326.37 21 1321 26.3726 1321 33C1321 39.6274 1326.37 45 1333 45Z" fill="#37718E"/>
<path d="M1115 412C1125.49 412 1134 403.493 1134 393C1134 382.507 1125.49 374 1115 374C1104.51 374 1096 382.507 1096 393C1096 403.493 1104.51 412 1115 412Z" fill="#37718E"/>
<path d="M1276 374C1281.52 374 1286 369.523 1286 364C1286 358.477 1281.52 354 1276 354C1270.48 354 1266 358.477 1266 364C1266 369.523 1270.48 374 1276 374Z" fill="#37718E"/>
<path d="M814 973C814.552 973 815 972.552 815 972C815 971.448 814.552 971 814 971C813.448 971 813 971.448 813 972C813 972.552 813.448 973 814 973Z" fill="#37718E"/>
<path d="M1445 87C1456.05 87 1465 78.0457 1465 67C1465 55.9543 1456.05 47 1445 47C1433.95 47 1425 55.9543 1425 67C1425 78.0457 1433.95 87 1445 87Z" fill="#37718E"/>
<path d="M1523 1032C1524.66 1032 1526 1030.66 1526 1029C1526 1027.34 1524.66 1026 1523 1026C1521.34 1026 1520 1027.34 1520 1029C1520 1030.66 1521.34 1032 1523 1032Z" fill="#37718E"/>
<path d="M492 159C494.761 159 497 156.761 497 154C497 151.239 494.761 149 492 149C489.239 149 487 151.239 487 154C487 156.761 489.239 159 492 159Z" fill="#37718E"/>
<path d="M1598 800C1602.42 800 1606 796.418 1606 792C1606 787.582 1602.42 784 1598 784C1593.58 784 1590 787.582 1590 792C1590 796.418 1593.58 800 1598 800Z" fill="#37718E"/>
<path d="M504 392C505.105 392 506 391.105 506 390C506 388.895 505.105 388 504 388C502.895 388 502 388.895 502 390C502 391.105 502.895 392 504 392Z" fill="#37718E"/>
<path d="M1032 282C1035.87 282 1039 278.866 1039 275C1039 271.134 1035.87 268 1032 268C1028.13 268 1025 271.134 1025 275C1025 278.866 1028.13 282 1032 282Z" fill="#37718E"/>
<path d="M1876 1095C1885.94 1095 1894 1086.94 1894 1077C1894 1067.06 1885.94 1059 1876 1059C1866.06 1059 1858 1067.06 1858 1077C1858 1086.94 1866.06 1095 1876 1095Z" fill="#37718E"/>
<path d="M17 384C25.8366 384 33 376.837 33 368C33 359.163 25.8366 352 17 352C8.16344 352 1 359.163 1 368C1 376.837 8.16344 384 17 384Z" fill="#37718E"/>
<path d="M496 789C497.657 789 499 787.657 499 786C499 784.343 497.657 783 496 783C494.343 783 493 784.343 493 786C493 787.657 494.343 789 496 789Z" fill="#37718E"/>
<path d="M1013 86C1017.97 86 1022 81.9706 1022 77C1022 72.0294 1017.97 68 1013 68C1008.03 68 1004 72.0294 1004 77C1004 81.9706 1008.03 86 1013 86Z" fill="#37718E"/>
<path d="M1323 263C1332.94 263 1341 254.941 1341 245C1341 235.059 1332.94 227 1323 227C1313.06 227 1305 235.059 1305 245C1305 254.941 1313.06 263 1323 263Z" fill="#37718E"/>
<path d="M1015 1053C1022.18 1053 1028 1047.18 1028 1040C1028 1032.82 1022.18 1027 1015 1027C1007.82 1027 1002 1032.82 1002 1040C1002 1047.18 1007.82 1053 1015 1053Z" fill="#37718E"/>
<path d="M1340 175C1345.52 175 1350 170.523 1350 165C1350 159.477 1345.52 155 1340 155C1334.48 155 1330 159.477 1330 165C1330 170.523 1334.48 175 1340 175Z" fill="#37718E"/>
<path d="M675 678C677.761 678 680 675.761 680 673C680 670.239 677.761 668 675 668C672.239 668 670 670.239 670 673C670 675.761 672.239 678 675 678Z" fill="#37718E"/>
<path d="M795 816C802.732 816 809 809.732 809 802C809 794.268 802.732 788 795 788C787.268 788 781 794.268 781 802C781 809.732 787.268 816 795 816Z" fill="#37718E"/>
<path d="M847 253C860.255 253 871 242.255 871 229C871 215.745 860.255 205 847 205C833.745 205 823 215.745 823 229C823 242.255 833.745 253 847 253Z" fill="#37718E"/>
<path d="M1138 585C1147.39 585 1155 577.389 1155 568C1155 558.611 1147.39 551 1138 551C1128.61 551 1121 558.611 1121 568C1121 577.389 1128.61 585 1138 585Z" fill="#37718E"/>
<path d="M227 957C228.657 957 230 955.657 230 954C230 952.343 228.657 951 227 951C225.343 951 224 952.343 224 954C224 955.657 225.343 957 227 957Z" fill="#37718E"/>
<path d="M796 426C800.418 426 804 422.418 804 418C804 413.582 800.418 410 796 410C791.582 410 788 413.582 788 418C788 422.418 791.582 426 796 426Z" fill="#37718E"/>
<path d="M641 448C642.105 448 643 447.105 643 446C643 444.895 642.105 444 641 444C639.895 444 639 444.895 639 446C639 447.105 639.895 448 641 448Z" fill="#37718E"/>
<path d="M940 433C949.941 433 958 424.941 958 415C958 405.059 949.941 397 940 397C930.059 397 922 405.059 922 415C922 424.941 930.059 433 940 433Z" fill="#37718E"/>
<path d="M458 497C459.657 497 461 495.657 461 494C461 492.343 459.657 491 458 491C456.343 491 455 492.343 455 494C455 495.657 456.343 497 458 497Z" fill="#37718E"/>
<path d="M112 895C124.15 895 134 885.15 134 873C134 860.85 124.15 851 112 851C99.8497 851 90 860.85 90 873C90 885.15 99.8497 895 112 895Z" fill="#37718E"/>
<path d="M1844 391C1846.76 391 1849 388.761 1849 386C1849 383.239 1846.76 381 1844 381C1841.24 381 1839 383.239 1839 386C1839 388.761 1841.24 391 1844 391Z" fill="#37718E"/>
<path d="M1468 297C1479.6 297 1489 287.598 1489 276C1489 264.402 1479.6 255 1468 255C1456.4 255 1447 264.402 1447 276C1447 287.598 1456.4 297 1468 297Z" fill="#37718E"/>
<path d="M662 353C664.761 353 667 350.761 667 348C667 345.239 664.761 343 662 343C659.239 343 657 345.239 657 348C657 350.761 659.239 353 662 353Z" fill="#37718E"/>
<path d="M1172 150C1180.28 150 1187 143.284 1187 135C1187 126.716 1180.28 120 1172 120C1163.72 120 1157 126.716 1157 135C1157 143.284 1163.72 150 1172 150Z" fill="#37718E"/>
<path d="M543 247C546.866 247 550 243.866 550 240C550 236.134 546.866 233 543 233C539.134 233 536 236.134 536 240C536 243.866 539.134 247 543 247Z" fill="#37718E"/>
<path d="M1757 196C1759.21 196 1761 194.209 1761 192C1761 189.791 1759.21 188 1757 188C1754.79 188 1753 189.791 1753 192C1753 194.209 1754.79 196 1757 196Z" fill="#37718E"/>
<path d="M1068 573C1074.08 573 1079 568.075 1079 562C1079 555.925 1074.08 551 1068 551C1061.92 551 1057 555.925 1057 562C1057 568.075 1061.92 573 1068 573Z" fill="#37718E"/>
<path d="M339 519C352.255 519 363 508.255 363 495C363 481.745 352.255 471 339 471C325.745 471 315 481.745 315 495C315 508.255 325.745 519 339 519Z" fill="#37718E"/>
<path d="M1233 773C1235.76 773 1238 770.761 1238 768C1238 765.239 1235.76 763 1233 763C1230.24 763 1228 765.239 1228 768C1228 770.761 1230.24 773 1233 773Z" fill="#37718E"/>
<path d="M1575 388C1583.84 388 1591 380.837 1591 372C1591 363.163 1583.84 356 1575 356C1566.16 356 1559 363.163 1559 372C1559 380.837 1566.16 388 1575 388Z" fill="#37718E"/>
<path d="M817 660C819.209 660 821 658.209 821 656C821 653.791 819.209 652 817 652C814.791 652 813 653.791 813 656C813 658.209 814.791 660 817 660Z" fill="#37718E"/>
<path d="M1637 279C1638.66 279 1640 277.657 1640 276C1640 274.343 1638.66 273 1637 273C1635.34 273 1634 274.343 1634 276C1634 277.657 1635.34 279 1637 279Z" fill="#37718E"/>
<path d="M1092 316C1095.87 316 1099 312.866 1099 309C1099 305.134 1095.87 302 1092 302C1088.13 302 1085 305.134 1085 309C1085 312.866 1088.13 316 1092 316Z" fill="#37718E"/>
<path d="M19 461C31.7025 461 42 450.703 42 438C42 425.297 31.7025 415 19 415C6.29745 415 -4 425.297 -4 438C-4 450.703 6.29745 461 19 461Z" fill="#37718E"/>
<path d="M21 1042C26.5228 1042 31 1037.52 31 1032C31 1026.48 26.5228 1022 21 1022C15.4772 1022 11 1026.48 11 1032C11 1037.52 15.4772 1042 21 1042Z" fill="#37718E"/>
<path d="M1128 639C1136.28 639 1143 632.284 1143 624C1143 615.716 1136.28 609 1128 609C1119.72 609 1113 615.716 1113 624C1113 632.284 1119.72 639 1128 639Z" fill="#37718E"/>
<path d="M1091 979C1094.87 979 1098 975.866 1098 972C1098 968.134 1094.87 965 1091 965C1087.13 965 1084 968.134 1084 972C1084 975.866 1087.13 979 1091 979Z" fill="#37718E"/>
<path d="M1789 787C1790.66 787 1792 785.657 1792 784C1792 782.343 1790.66 781 1789 781C1787.34 781 1786 782.343 1786 784C1786 785.657 1787.34 787 1789 787Z" fill="#37718E"/>
<path d="M1073 719C1079.08 719 1084 714.075 1084 708C1084 701.925 1079.08 697 1073 697C1066.92 697 1062 701.925 1062 708C1062 714.075 1066.92 719 1073 719Z" fill="#37718E"/>
<path d="M1116 831C1123.73 831 1130 824.732 1130 817C1130 809.268 1123.73 803 1116 803C1108.27 803 1102 809.268 1102 817C1102 824.732 1108.27 831 1116 831Z" fill="#37718E"/>
<path d="M1859 211C1866.73 211 1873 204.732 1873 197C1873 189.268 1866.73 183 1859 183C1851.27 183 1845 189.268 1845 197C1845 204.732 1851.27 211 1859 211Z" fill="#37718E"/>
<path d="M1400 985C1406.08 985 1411 980.075 1411 974C1411 967.925 1406.08 963 1400 963C1393.92 963 1389 967.925 1389 974C1389 980.075 1393.92 985 1400 985Z" fill="#37718E"/>
<path d="M554 811C565.598 811 575 801.598 575 790C575 778.402 565.598 769 554 769C542.402 769 533 778.402 533 790C533 801.598 542.402 811 554 811Z" fill="#37718E"/>
<path d="M378 20C379.105 20 380 19.1046 380 18C380 16.8954 379.105 16 378 16C376.895 16 376 16.8954 376 18C376 19.1046 376.895 20 378 20Z" fill="#37718E"/>
<path d="M1617 870C1628.6 870 1638 860.598 1638 849C1638 837.402 1628.6 828 1617 828C1605.4 828 1596 837.402 1596 849C1596 860.598 1605.4 870 1617 870Z" fill="#37718E"/>
<path d="M608 105C620.15 105 630 95.1503 630 83C630 70.8497 620.15 61 608 61C595.85 61 586 70.8497 586 83C586 95.1503 595.85 105 608 105Z" fill="#37718E"/>
<path d="M806 57C812.075 57 817 52.0751 817 46C817 39.9249 812.075 35 806 35C799.925 35 795 39.9249 795 46C795 52.0751 799.925 57 806 57Z" fill="#37718E"/>
<path d="M1912 247C1912.55 247 1913 246.552 1913 246C1913 245.448 1912.55 245 1912 245C1911.45 245 1911 245.448 1911 246C1911 246.552 1911.45 247 1912 247Z" fill="#37718E"/>
<path d="M370 1082C373.314 1082 376 1079.31 376 1076C376 1072.69 373.314 1070 370 1070C366.686 1070 364 1072.69 364 1076C364 1079.31 366.686 1082 370 1082Z" fill="#37718E"/>
<path d="M361 340C365.971 340 370 335.971 370 331C370 326.029 365.971 322 361 322C356.029 322 352 326.029 352 331C352 335.971 356.029 340 361 340Z" fill="#37718E"/>
<path d="M585 327C592.732 327 599 320.732 599 313C599 305.268 592.732 299 585 299C577.268 299 571 305.268 571 313C571 320.732 577.268 327 585 327Z" fill="#37718E"/>
<path d="M1560 152C1569.94 152 1578 143.941 1578 134C1578 124.059 1569.94 116 1560 116C1550.06 116 1542 124.059 1542 134C1542 143.941 1550.06 152 1560 152Z" fill="#37718E"/>
<path d="M427 1057C435.837 1057 443 1049.84 443 1041C443 1032.16 435.837 1025 427 1025C418.163 1025 411 1032.16 411 1041C411 1049.84 418.163 1057 427 1057Z" fill="#37718E"/>
<path d="M1690 762C1703.25 762 1714 751.255 1714 738C1714 724.745 1703.25 714 1690 714C1676.75 714 1666 724.745 1666 738C1666 751.255 1676.75 762 1690 762Z" fill="#37718E"/>
<path d="M1845 447C1848.87 447 1852 443.866 1852 440C1852 436.134 1848.87 433 1845 433C1841.13 433 1838 436.134 1838 440C1838 443.866 1841.13 447 1845 447Z" fill="#37718E"/>
<path d="M1715 393C1722.18 393 1728 387.18 1728 380C1728 372.82 1722.18 367 1715 367C1707.82 367 1702 372.82 1702 380C1702 387.18 1707.82 393 1715 393Z" fill="#37718E"/>
<path d="M1873 119C1879.08 119 1884 114.075 1884 108C1884 101.925 1879.08 97 1873 97C1866.92 97 1862 101.925 1862 108C1862 114.075 1866.92 119 1873 119Z" fill="#37718E"/>
<path d="M291 586C297.627 586 303 580.627 303 574C303 567.373 297.627 562 291 562C284.373 562 279 567.373 279 574C279 580.627 284.373 586 291 586Z" fill="#37718E"/>
<path d="M702 544C713.598 544 723 534.598 723 523C723 511.402 713.598 502 702 502C690.402 502 681 511.402 681 523C681 534.598 690.402 544 702 544Z" fill="#37718E"/>
<path d="M1747 1072C1751.42 1072 1755 1068.42 1755 1064C1755 1059.58 1751.42 1056 1747 1056C1742.58 1056 1739 1059.58 1739 1064C1739 1068.42 1742.58 1072 1747 1072Z" fill="#37718E"/>
<path d="M946 346C958.15 346 968 336.15 968 324C968 311.85 958.15 302 946 302C933.85 302 924 311.85 924 324C924 336.15 933.85 346 946 346Z" fill="#37718E"/>
<path d="M432 947C435.314 947 438 944.314 438 941C438 937.686 435.314 935 432 935C428.686 935 426 937.686 426 941C426 944.314 428.686 947 432 947Z" fill="#37718E"/>
<path d="M1710 565C1717.18 565 1723 559.18 1723 552C1723 544.82 1717.18 539 1710 539C1702.82 539 1697 544.82 1697 552C1697 559.18 1702.82 565 1710 565Z" fill="#37718E"/>
<path d="M929 760C931.761 760 934 757.761 934 755C934 752.239 931.761 750 929 750C926.239 750 924 752.239 924 755C924 757.761 926.239 760 929 760Z" fill="#37718E"/>
<path d="M129 128C129.552 128 130 127.552 130 127C130 126.448 129.552 126 129 126C128.448 126 128 126.448 128 127C128 127.552 128.448 128 129 128Z" fill="#37718E"/>
<path d="M352 1019C352.552 1019 353 1018.55 353 1018C353 1017.45 352.552 1017 352 1017C351.448 1017 351 1017.45 351 1018C351 1018.55 351.448 1019 352 1019Z" fill="#37718E"/>
<path d="M993 926C997.418 926 1001 922.418 1001 918C1001 913.582 997.418 910 993 910C988.582 910 985 913.582 985 918C985 922.418 988.582 926 993 926Z" fill="#37718E"/>
<path d="M1387 832C1394.18 832 1400 826.18 1400 819C1400 811.82 1394.18 806 1387 806C1379.82 806 1374 811.82 1374 819C1374 826.18 1379.82 832 1387 832Z" fill="#37718E"/>
<path d="M1656 668C1660.42 668 1664 664.418 1664 660C1664 655.582 1660.42 652 1656 652C1651.58 652 1648 655.582 1648 660C1648 664.418 1651.58 668 1656 668Z" fill="#37718E"/>
<path d="M880 390C883.314 390 886 387.314 886 384C886 380.686 883.314 378 880 378C876.686 378 874 380.686 874 384C874 387.314 876.686 390 880 390Z" fill="#37718E"/>
<path d="M308 30C310.209 30 312 28.2091 312 26C312 23.7909 310.209 22 308 22C305.791 22 304 23.7909 304 26C304 28.2091 305.791 30 308 30Z" fill="#37718E"/>
<path d="M1064 854C1072.28 854 1079 847.284 1079 839C1079 830.716 1072.28 824 1064 824C1055.72 824 1049 830.716 1049 839C1049 847.284 1055.72 854 1064 854Z" fill="#37718E"/>
<path d="M55 817C58.3137 817 61 814.314 61 811C61 807.686 58.3137 805 55 805C51.6863 805 49 807.686 49 811C49 814.314 51.6863 817 55 817Z" fill="#37718E"/>
<path d="M367 987C379.15 987 389 977.15 389 965C389 952.85 379.15 943 367 943C354.85 943 345 952.85 345 965C345 977.15 354.85 987 367 987Z" fill="#37718E"/>
<path d="M1887 617C1891.42 617 1895 613.418 1895 609C1895 604.582 1891.42 601 1887 601C1882.58 601 1879 604.582 1879 609C1879 613.418 1882.58 617 1887 617Z" fill="#37718E"/>
<path d="M1351 425C1359.28 425 1366 418.284 1366 410C1366 401.716 1359.28 395 1351 395C1342.72 395 1336 401.716 1336 410C1336 418.284 1342.72 425 1351 425Z" fill="#37718E"/>
<path d="M1185 1086C1190.52 1086 1195 1081.52 1195 1076C1195 1070.48 1190.52 1066 1185 1066C1179.48 1066 1175 1070.48 1175 1076C1175 1081.52 1179.48 1086 1185 1086Z" fill="#37718E"/>
<path d="M1568 1067C1569.66 1067 1571 1065.66 1571 1064C1571 1062.34 1569.66 1061 1568 1061C1566.34 1061 1565 1062.34 1565 1064C1565 1065.66 1566.34 1067 1568 1067Z" fill="#37718E"/>
<path d="M570 406C573.314 406 576 403.314 576 400C576 396.686 573.314 394 570 394C566.686 394 564 396.686 564 400C564 403.314 566.686 406 570 406Z" fill="#37718E"/>
<path d="M587 1089C593.627 1089 599 1083.63 599 1077C599 1070.37 593.627 1065 587 1065C580.373 1065 575 1070.37 575 1077C575 1083.63 580.373 1089 587 1089Z" fill="#37718E"/>
<path d="M1557 916C1568.6 916 1578 906.598 1578 895C1578 883.402 1568.6 874 1557 874C1545.4 874 1536 883.402 1536 895C1536 906.598 1545.4 916 1557 916Z" fill="#37718E"/>
<path d="M391 572C403.703 572 414 561.703 414 549C414 536.297 403.703 526 391 526C378.297 526 368 536.297 368 549C368 561.703 378.297 572 391 572Z" fill="#37718E"/>
<path d="M83 209C96.2548 209 107 198.255 107 185C107 171.745 96.2548 161 83 161C69.7452 161 59 171.745 59 185C59 198.255 69.7452 209 83 209Z" fill="#37718E"/>
<path d="M1116 161C1117.66 161 1119 159.657 1119 158C1119 156.343 1117.66 155 1116 155C1114.34 155 1113 156.343 1113 158C1113 159.657 1114.34 161 1116 161Z" fill="#37718E"/>
<path d="M70 913C72.2091 913 74 911.209 74 909C74 906.791 72.2091 905 70 905C67.7909 905 66 906.791 66 909C66 911.209 67.7909 913 70 913Z" fill="#37718E"/>
<path d="M1275 962C1286.05 962 1295 953.046 1295 942C1295 930.954 1286.05 922 1275 922C1263.95 922 1255 930.954 1255 942C1255 953.046 1263.95 962 1275 962Z" fill="#37718E"/>
<path d="M221 640C234.255 640 245 629.255 245 616C245 602.745 234.255 592 221 592C207.745 592 197 602.745 197 616C197 629.255 207.745 640 221 640Z" fill="#37718E"/>
<path d="M1556 836C1558.76 836 1561 833.761 1561 831C1561 828.239 1558.76 826 1556 826C1553.24 826 1551 828.239 1551 831C1551 833.761 1553.24 836 1556 836Z" fill="#37718E"/>
<path d="M535 585C546.046 585 555 576.046 555 565C555 553.954 546.046 545 535 545C523.954 545 515 553.954 515 565C515 576.046 523.954 585 535 585Z" fill="#37718E"/>
<path d="M1576 294C1577.66 294 1579 292.657 1579 291C1579 289.343 1577.66 288 1576 288C1574.34 288 1573 289.343 1573 291C1573 292.657 1574.34 294 1576 294Z" fill="#37718E"/>
<path d="M961 863C973.15 863 983 853.15 983 841C983 828.85 973.15 819 961 819C948.85 819 939 828.85 939 841C939 853.15 948.85 863 961 863Z" fill="#37718E"/>
<path d="M1266 266C1273.18 266 1279 260.18 1279 253C1279 245.82 1273.18 240 1266 240C1258.82 240 1253 245.82 1253 253C1253 260.18 1258.82 266 1266 266Z" fill="#37718E"/>
<path d="M1591 449C1594.87 449 1598 445.866 1598 442C1598 438.134 1594.87 435 1591 435C1587.13 435 1584 438.134 1584 442C1584 445.866 1587.13 449 1591 449Z" fill="#37718E"/>
<path d="M914 579C926.15 579 936 569.15 936 557C936 544.85 926.15 535 914 535C901.85 535 892 544.85 892 557C892 569.15 901.85 579 914 579Z" fill="#37718E"/>
<path d="M1779 372C1792.25 372 1803 361.255 1803 348C1803 334.745 1792.25 324 1779 324C1765.75 324 1755 334.745 1755 348C1755 361.255 1765.75 372 1779 372Z" fill="#37718E"/>
<path d="M1241 1058C1242.66 1058 1244 1056.66 1244 1055C1244 1053.34 1242.66 1052 1241 1052C1239.34 1052 1238 1053.34 1238 1055C1238 1056.66 1239.34 1058 1241 1058Z" fill="#37718E"/>
<path d="M568 1020C580.15 1020 590 1010.15 590 998C590 985.85 580.15 976 568 976C555.85 976 546 985.85 546 998C546 1010.15 555.85 1020 568 1020Z" fill="#37718E"/>
<path d="M1683 914C1686.31 914 1689 911.314 1689 908C1689 904.686 1686.31 902 1683 902C1679.69 902 1677 904.686 1677 908C1677 911.314 1679.69 914 1683 914Z" fill="#37718E"/>
<path d="M1794 492C1806.7 492 1817 481.703 1817 469C1817 456.297 1806.7 446 1794 446C1781.3 446 1771 456.297 1771 469C1771 481.703 1781.3 492 1794 492Z" fill="#37718E"/>
<path d="M79 537C91.7025 537 102 526.703 102 514C102 501.297 91.7025 491 79 491C66.2975 491 56 501.297 56 514C56 526.703 66.2975 537 79 537Z" fill="#37718E"/>
<path d="M658 305C667.389 305 675 297.389 675 288C675 278.611 667.389 271 658 271C648.611 271 641 278.611 641 288C641 297.389 648.611 305 658 305Z" fill="#37718E"/>
<path d="M639 581C651.703 581 662 570.703 662 558C662 545.297 651.703 535 639 535C626.297 535 616 545.297 616 558C616 570.703 626.297 581 639 581Z" fill="#37718E"/>
<path d="M27 324C34.1797 324 40 318.18 40 311C40 303.82 34.1797 298 27 298C19.8203 298 14 303.82 14 311C14 318.18 19.8203 324 27 324Z" fill="#37718E"/>
<path d="M1482 727C1485.87 727 1489 723.866 1489 720C1489 716.134 1485.87 713 1482 713C1478.13 713 1475 716.134 1475 720C1475 723.866 1478.13 727 1482 727Z" fill="#37718E"/>
<path d="M1105 522C1112.73 522 1119 515.732 1119 508C1119 500.268 1112.73 494 1105 494C1097.27 494 1091 500.268 1091 508C1091 515.732 1097.27 522 1105 522Z" fill="#37718E"/>
<path d="M1161 440C1164.87 440 1168 436.866 1168 433C1168 429.134 1164.87 426 1161 426C1157.13 426 1154 429.134 1154 433C1154 436.866 1157.13 440 1161 440Z" fill="#37718E"/>
<path d="M1739 844C1740.1 844 1741 843.105 1741 842C1741 840.895 1740.1 840 1739 840C1737.9 840 1737 840.895 1737 842C1737 843.105 1737.9 844 1739 844Z" fill="#37718E"/>
<path d="M1481 130C1481.55 130 1482 129.552 1482 129C1482 128.448 1481.55 128 1481 128C1480.45 128 1480 128.448 1480 129C1480 129.552 1480.45 130 1481 130Z" fill="#37718E"/>
<path d="M883 614C890.18 614 896 608.18 896 601C896 593.82 890.18 588 883 588C875.82 588 870 593.82 870 601C870 608.18 875.82 614 883 614Z" fill="#37718E"/>
<path d="M1017 731C1025.84 731 1033 723.837 1033 715C1033 706.163 1025.84 699 1017 699C1008.16 699 1001 706.163 1001 715C1001 723.837 1008.16 731 1017 731Z" fill="#37718E"/>
<path d="M886 86C896.493 86 905 77.4934 905 67C905 56.5066 896.493 48 886 48C875.507 48 867 56.5066 867 67C867 77.4934 875.507 86 886 86Z" fill="#37718E"/>
<path d="M1646 1089C1659.25 1089 1670 1078.25 1670 1065C1670 1051.75 1659.25 1041 1646 1041C1632.75 1041 1622 1051.75 1622 1065C1622 1078.25 1632.75 1089 1646 1089Z" fill="#37718E"/>
<path d="M1013 827C1019.63 827 1025 821.627 1025 815C1025 808.373 1019.63 803 1013 803C1006.37 803 1001 808.373 1001 815C1001 821.627 1006.37 827 1013 827Z" fill="#37718E"/>
<path d="M1401 118C1406.52 118 1411 113.523 1411 108C1411 102.477 1406.52 98 1401 98C1395.48 98 1391 102.477 1391 108C1391 113.523 1395.48 118 1401 118Z" fill="#37718E"/>
<path d="M1408 558C1411.87 558 1415 554.866 1415 551C1415 547.134 1411.87 544 1408 544C1404.13 544 1401 547.134 1401 551C1401 554.866 1404.13 558 1408 558Z" fill="#37718E"/>
<path d="M587 632C591.971 632 596 627.971 596 623C596 618.029 591.971 614 587 614C582.029 614 578 618.029 578 623C578 627.971 582.029 632 587 632Z" fill="#37718E"/>
<path d="M714 433C720.075 433 725 428.075 725 422C725 415.925 720.075 411 714 411C707.925 411 703 415.925 703 422C703 428.075 707.925 433 714 433Z" fill="#37718E"/>
<path d="M140 399C146.627 399 152 393.627 152 387C152 380.373 146.627 375 140 375C133.373 375 128 380.373 128 387C128 393.627 133.373 399 140 399Z" fill="#37718E"/>
<path d="M192 356C194.209 356 196 354.209 196 352C196 349.791 194.209 348 192 348C189.791 348 188 349.791 188 352C188 354.209 189.791 356 192 356Z" fill="#37718E"/>
<path d="M1226 23C1235.94 23 1244 14.9411 1244 5C1244 -4.94113 1235.94 -13 1226 -13C1216.06 -13 1208 -4.94113 1208 5C1208 14.9411 1216.06 23 1226 23Z" fill="#37718E"/>
<path d="M399 865C406.18 865 412 859.18 412 852C412 844.82 406.18 839 399 839C391.82 839 386 844.82 386 852C386 859.18 391.82 865 399 865Z" fill="#37718E"/>
<path d="M648 625C652.418 625 656 621.418 656 617C656 612.582 652.418 609 648 609C643.582 609 640 612.582 640 617C640 621.418 643.582 625 648 625Z" fill="#37718E"/>
<path d="M950 532C962.703 532 973 521.703 973 509C973 496.297 962.703 486 950 486C937.297 486 927 496.297 927 509C927 521.703 937.297 532 950 532Z" fill="#37718E"/>
<path d="M987 676C1000.25 676 1011 665.255 1011 652C1011 638.745 1000.25 628 987 628C973.745 628 963 638.745 963 652C963 665.255 973.745 676 987 676Z" fill="#37718E"/>
<path d="M1157 1011C1159.76 1011 1162 1008.76 1162 1006C1162 1003.24 1159.76 1001 1157 1001C1154.24 1001 1152 1003.24 1152 1006C1152 1008.76 1154.24 1011 1157 1011Z" fill="#37718E"/>
<path d="M802 554C813.598 554 823 544.598 823 533C823 521.402 813.598 512 802 512C790.402 512 781 521.402 781 533C781 544.598 790.402 554 802 554Z" fill="#37718E"/>
<path d="M77 285C78.1046 285 79 284.105 79 283C79 281.895 78.1046 281 77 281C75.8954 281 75 281.895 75 283C75 284.105 75.8954 285 77 285Z" fill="#37718E"/>
<path d="M1220 232C1222.21 232 1224 230.209 1224 228C1224 225.791 1222.21 224 1220 224C1217.79 224 1216 225.791 1216 228C1216 230.209 1217.79 232 1220 232Z" fill="#37718E"/>
<path d="M142 946C149.18 946 155 940.18 155 933C155 925.82 149.18 920 142 920C134.82 920 129 925.82 129 933C129 940.18 134.82 946 142 946Z" fill="#37718E"/>
<path d="M720 756C726.075 756 731 751.075 731 745C731 738.925 726.075 734 720 734C713.925 734 709 738.925 709 745C709 751.075 713.925 756 720 756Z" fill="#37718E"/>
<path d="M201 278C213.703 278 224 267.703 224 255C224 242.297 213.703 232 201 232C188.297 232 178 242.297 178 255C178 267.703 188.297 278 201 278Z" fill="#37718E"/>
<path d="M1093 26C1097.97 26 1102 21.9706 1102 17C1102 12.0294 1097.97 8 1093 8C1088.03 8 1084 12.0294 1084 17C1084 21.9706 1088.03 26 1093 26Z" fill="#37718E"/>
<path d="M545 526C552.732 526 559 519.732 559 512C559 504.268 552.732 498 545 498C537.268 498 531 504.268 531 512C531 519.732 537.268 526 545 526Z" fill="#37718E"/>
<path d="M215 41C218.314 41 221 38.3137 221 35C221 31.6863 218.314 29 215 29C211.686 29 209 31.6863 209 35C209 38.3137 211.686 41 215 41Z" fill="#37718E"/>
<path d="M1301 878C1306.52 878 1311 873.523 1311 868C1311 862.477 1306.52 858 1301 858C1295.48 858 1291 862.477 1291 868C1291 873.523 1295.48 878 1301 878Z" fill="#37718E"/>
<path d="M935 631C935.552 631 936 630.552 936 630C936 629.448 935.552 629 935 629C934.448 629 934 629.448 934 630C934 630.552 934.448 631 935 631Z" fill="#37718E"/>
<path d="M1757 83C1767.49 83 1776 74.4934 1776 64C1776 53.5066 1767.49 45 1757 45C1746.51 45 1738 53.5066 1738 64C1738 74.4934 1746.51 83 1757 83Z" fill="#37718E"/>
<path d="M1574 23C1580.63 23 1586 17.6274 1586 11C1586 4.37258 1580.63 -1 1574 -1C1567.37 -1 1562 4.37258 1562 11C1562 17.6274 1567.37 23 1574 23Z" fill="#37718E"/>
<path d="M1732 442C1734.21 442 1736 440.209 1736 438C1736 435.791 1734.21 434 1732 434C1729.79 434 1728 435.791 1728 438C1728 440.209 1729.79 442 1732 442Z" fill="#37718E"/>
<path d="M541 121C543.761 121 546 118.761 546 116C546 113.239 543.761 111 541 111C538.239 111 536 113.239 536 116C536 118.761 538.239 121 541 121Z" fill="#37718E"/>
<path d="M646 881C651.523 881 656 876.523 656 871C656 865.477 651.523 861 646 861C640.477 861 636 865.477 636 871C636 876.523 640.477 881 646 881Z" fill="#37718E"/>
<path d="M945 124C956.598 124 966 114.598 966 103C966 91.402 956.598 82 945 82C933.402 82 924 91.402 924 103C924 114.598 933.402 124 945 124Z" fill="#37718E"/>
<path d="M747 173C756.389 173 764 165.389 764 156C764 146.611 756.389 139 747 139C737.611 139 730 146.611 730 156C730 165.389 737.611 173 747 173Z" fill="#37718E"/>
<path d="M1801 569C1813.15 569 1823 559.15 1823 547C1823 534.85 1813.15 525 1801 525C1788.85 525 1779 534.85 1779 547C1779 559.15 1788.85 569 1801 569Z" fill="#37718E"/>
<path d="M912 32C924.703 32 935 21.7025 935 9C935 -3.70255 924.703 -14 912 -14C899.297 -14 889 -3.70255 889 9C889 21.7025 899.297 32 912 32Z" fill="#37718E"/>
<path d="M1580 549C1586.08 549 1591 544.075 1591 538C1591 531.925 1586.08 527 1580 527C1573.92 527 1569 531.925 1569 538C1569 544.075 1573.92 549 1580 549Z" fill="#37718E"/>
<path d="M877 811C887.493 811 896 802.493 896 792C896 781.507 887.493 773 877 773C866.507 773 858 781.507 858 792C858 802.493 866.507 811 877 811Z" fill="#37718E"/>
<path d="M1777 150C1785.84 150 1793 142.837 1793 134C1793 125.163 1785.84 118 1777 118C1768.16 118 1761 125.163 1761 134C1761 142.837 1768.16 150 1777 150Z" fill="#37718E"/>
<path d="M1651 69C1652.66 69 1654 67.6569 1654 66C1654 64.3431 1652.66 63 1651 63C1649.34 63 1648 64.3431 1648 66C1648 67.6569 1649.34 69 1651 69Z" fill="#37718E"/>
<path d="M252 305C255.866 305 259 301.866 259 298C259 294.134 255.866 291 252 291C248.134 291 245 294.134 245 298C245 301.866 248.134 305 252 305Z" fill="#37718E"/>
<path d="M780 347C791.598 347 801 337.598 801 326C801 314.402 791.598 305 780 305C768.402 305 759 314.402 759 326C759 337.598 768.402 347 780 347Z" fill="#37718E"/>
<path d="M229 746C240.598 746 250 736.598 250 725C250 713.402 240.598 704 229 704C217.402 704 208 713.402 208 725C208 736.598 217.402 746 229 746Z" fill="#37718E"/>
<path d="M475 626C484.941 626 493 617.941 493 608C493 598.059 484.941 590 475 590C465.059 590 457 598.059 457 608C457 617.941 465.059 626 475 626Z" fill="#37718E"/>
<path d="M525 647C528.866 647 532 643.866 532 640C532 636.134 528.866 633 525 633C521.134 633 518 636.134 518 640C518 643.866 521.134 647 525 647Z" fill="#37718E"/>
<path d="M1239 907C1240.66 907 1242 905.657 1242 904C1242 902.343 1240.66 901 1239 901C1237.34 901 1236 902.343 1236 904C1236 905.657 1237.34 907 1239 907Z" fill="#37718E"/>
<path d="M1157 360C1159.21 360 1161 358.209 1161 356C1161 353.791 1159.21 352 1157 352C1154.79 352 1153 353.791 1153 356C1153 358.209 1154.79 360 1157 360Z" fill="#37718E"/>
<path d="M756 1084C762.075 1084 767 1079.08 767 1073C767 1066.92 762.075 1062 756 1062C749.925 1062 745 1066.92 745 1073C745 1079.08 749.925 1084 756 1084Z" fill="#37718E"/>
<path d="M972 603C976.971 603 981 598.971 981 594C981 589.029 976.971 585 972 585C967.029 585 963 589.029 963 594C963 598.971 967.029 603 972 603Z" fill="#37718E"/>
<path d="M84 36C86.7614 36 89 33.7614 89 31C89 28.2386 86.7614 26 84 26C81.2386 26 79 28.2386 79 31C79 33.7614 81.2386 36 84 36Z" fill="#37718E"/>
<path d="M298 906C305.18 906 311 900.18 311 893C311 885.82 305.18 880 298 880C290.82 880 285 885.82 285 893C285 900.18 290.82 906 298 906Z" fill="#37718E"/>
<path d="M1057 458C1069.15 458 1079 448.15 1079 436C1079 423.85 1069.15 414 1057 414C1044.85 414 1035 423.85 1035 436C1035 448.15 1044.85 458 1057 458Z" fill="#37718E"/>
<path d="M161 553C170.941 553 179 544.941 179 535C179 525.059 170.941 517 161 517C151.059 517 143 525.059 143 535C143 544.941 151.059 553 161 553Z" fill="#37718E"/>
<path d="M1736 642C1737.1 642 1738 641.105 1738 640C1738 638.895 1737.1 638 1736 638C1734.9 638 1734 638.895 1734 640C1734 641.105 1734.9 642 1736 642Z" fill="#37718E"/>
<path d="M1905 433C1914.39 433 1922 425.389 1922 416C1922 406.611 1914.39 399 1905 399C1895.61 399 1888 406.611 1888 416C1888 425.389 1895.61 433 1905 433Z" fill="#37718E"/>
<path d="M122 752C130.837 752 138 744.837 138 736C138 727.163 130.837 720 122 720C113.163 720 106 727.163 106 736C106 744.837 113.163 752 122 752Z" fill="#37718E"/>
<path d="M280 1030C287.18 1030 293 1024.18 293 1017C293 1009.82 287.18 1004 280 1004C272.82 1004 267 1009.82 267 1017C267 1024.18 272.82 1030 280 1030Z" fill="#37718E"/>
<path d="M106 989C108.761 989 111 986.761 111 984C111 981.239 108.761 979 106 979C103.239 979 101 981.239 101 984C101 986.761 103.239 989 106 989Z" fill="#37718E"/>
<path d="M1478 1085C1483.52 1085 1488 1080.52 1488 1075C1488 1069.48 1483.52 1065 1478 1065C1472.48 1065 1468 1069.48 1468 1075C1468 1080.52 1472.48 1085 1478 1085Z" fill="#37718E"/>
<path d="M310 1093C319.389 1093 327 1085.39 327 1076C327 1066.61 319.389 1059 310 1059C300.611 1059 293 1066.61 293 1076C293 1085.39 300.611 1093 310 1093Z" fill="#37718E"/>
<path d="M1705 92C1716.6 92 1726 82.598 1726 71C1726 59.402 1716.6 50 1705 50C1693.4 50 1684 59.402 1684 71C1684 82.598 1693.4 92 1705 92Z" fill="#37718E"/>
<path d="M1894 545C1903.39 545 1911 537.389 1911 528C1911 518.611 1903.39 511 1894 511C1884.61 511 1877 518.611 1877 528C1877 537.389 1884.61 545 1894 545Z" fill="#37718E"/>
<path d="M1255 475C1263.28 475 1270 468.284 1270 460C1270 451.716 1263.28 445 1255 445C1246.72 445 1240 451.716 1240 460C1240 468.284 1246.72 475 1255 475Z" fill="#37718E"/>
<path d="M1065 156C1075.49 156 1084 147.493 1084 137C1084 126.507 1075.49 118 1065 118C1054.51 118 1046 126.507 1046 137C1046 147.493 1054.51 156 1065 156Z" fill="#37718E"/>
<path d="M1013 18C1017.97 18 1022 13.9706 1022 9C1022 4.02944 1017.97 0 1013 0C1008.03 0 1004 4.02944 1004 9C1004 13.9706 1008.03 18 1013 18Z" fill="#37718E"/>
<path d="M759 886C770.046 886 779 877.046 779 866C779 854.954 770.046 846 759 846C747.954 846 739 854.954 739 866C739 877.046 747.954 886 759 886Z" fill="#37718E"/>
<path d="M680 805C684.971 805 689 800.971 689 796C689 791.029 684.971 787 680 787C675.029 787 671 791.029 671 796C671 800.971 675.029 805 680 805Z" fill="#37718E"/>
<path d="M524 708C525.657 708 527 706.657 527 705C527 703.343 525.657 702 524 702C522.343 702 521 703.343 521 705C521 706.657 522.343 708 524 708Z" fill="#37718E"/>
<path d="M1493 371C1504.6 371 1514 361.598 1514 350C1514 338.402 1504.6 329 1493 329C1481.4 329 1472 338.402 1472 350C1472 361.598 1481.4 371 1493 371Z" fill="#37718E"/>
<path d="M1069 927C1080.05 927 1089 918.046 1089 907C1089 895.954 1080.05 887 1069 887C1057.95 887 1049 895.954 1049 907C1049 918.046 1057.95 927 1069 927Z" fill="#37718E"/>
<path d="M1877 953C1885.84 953 1893 945.837 1893 937C1893 928.163 1885.84 921 1877 921C1868.16 921 1861 928.163 1861 937C1861 945.837 1868.16 953 1877 953Z" fill="#37718E"/>
<path d="M947 1084C956.389 1084 964 1076.39 964 1067C964 1057.61 956.389 1050 947 1050C937.611 1050 930 1057.61 930 1067C930 1076.39 937.611 1084 947 1084Z" fill="#37718E"/>
<path d="M228 196C230.761 196 233 193.761 233 191C233 188.239 230.761 186 228 186C225.239 186 223 188.239 223 191C223 193.761 225.239 196 228 196Z" fill="#37718E"/>
<path d="M1547 966C1558.05 966 1567 957.046 1567 946C1567 934.954 1558.05 926 1547 926C1535.95 926 1527 934.954 1527 946C1527 957.046 1535.95 966 1547 966Z" fill="#37718E"/>
<path d="M630 32C633.314 32 636 29.3137 636 26C636 22.6863 633.314 20 630 20C626.686 20 624 22.6863 624 26C624 29.3137 626.686 32 630 32Z" fill="#37718E"/>
<path d="M103 1093C112.941 1093 121 1084.94 121 1075C121 1065.06 112.941 1057 103 1057C93.0589 1057 85 1065.06 85 1075C85 1084.94 93.0589 1093 103 1093Z" fill="#37718E"/>
<path d="M1218 726C1223.52 726 1228 721.523 1228 716C1228 710.477 1223.52 706 1218 706C1212.48 706 1208 710.477 1208 716C1208 721.523 1212.48 726 1218 726Z" fill="#37718E"/>
<path d="M210 428C212.761 428 215 425.761 215 423C215 420.239 212.761 418 210 418C207.239 418 205 420.239 205 423C205 425.761 207.239 428 210 428Z" fill="#37718E"/>
<path d="M687 186C698.046 186 707 177.046 707 166C707 154.954 698.046 146 687 146C675.954 146 667 154.954 667 166C667 177.046 675.954 186 687 186Z" fill="#37718E"/>
<path d="M190 1054C190.552 1054 191 1053.55 191 1053C191 1052.45 190.552 1052 190 1052C189.448 1052 189 1052.45 189 1053C189 1053.55 189.448 1054 190 1054Z" fill="#37718E"/>
<path d="M1455 1004C1468.25 1004 1479 993.255 1479 980C1479 966.745 1468.25 956 1455 956C1441.75 956 1431 966.745 1431 980C1431 993.255 1441.75 1004 1455 1004Z" fill="#37718E"/>
<path d="M1446 507C1459.25 507 1470 496.255 1470 483C1470 469.745 1459.25 459 1446 459C1432.75 459 1422 469.745 1422 483C1422 496.255 1432.75 507 1446 507Z" fill="#37718E"/>
<path d="M1800 923C1801.66 923 1803 921.657 1803 920C1803 918.343 1801.66 917 1800 917C1798.34 917 1797 918.343 1797 920C1797 921.657 1798.34 923 1800 923Z" fill="#37718E"/>
<path d="M443 467C456.255 467 467 456.255 467 443C467 429.745 456.255 419 443 419C429.745 419 419 429.745 419 443C419 456.255 429.745 467 443 467Z" fill="#37718E"/>
<path d="M399 284C408.941 284 417 275.941 417 266C417 256.059 408.941 248 399 248C389.059 248 381 256.059 381 266C381 275.941 389.059 284 399 284Z" fill="#37718E"/>
<path d="M1707 227C1718.05 227 1727 218.046 1727 207C1727 195.954 1718.05 187 1707 187C1695.95 187 1687 195.954 1687 207C1687 218.046 1695.95 227 1707 227Z" fill="#37718E"/>
<path d="M734 687C742.837 687 750 679.837 750 671C750 662.163 742.837 655 734 655C725.163 655 718 662.163 718 671C718 679.837 725.163 687 734 687Z" fill="#37718E"/>
<path d="M883 486C888.523 486 893 481.523 893 476C893 470.477 888.523 466 883 466C877.477 466 873 470.477 873 476C873 481.523 877.477 486 883 486Z" fill="#37718E"/>
<path d="M1241 424C1252.05 424 1261 415.046 1261 404C1261 392.954 1252.05 384 1241 384C1229.95 384 1221 392.954 1221 404C1221 415.046 1229.95 424 1241 424Z" fill="#37718E"/>
<path d="M1067 370C1075.84 370 1083 362.837 1083 354C1083 345.163 1075.84 338 1067 338C1058.16 338 1051 345.163 1051 354C1051 362.837 1058.16 370 1067 370Z" fill="#37718E"/>
<path d="M494 65C500.075 65 505 60.0751 505 54C505 47.9249 500.075 43 494 43C487.925 43 483 47.9249 483 54C483 60.0751 487.925 65 494 65Z" fill="#37718E"/>
<path d="M1560 213C1571.6 213 1581 203.598 1581 192C1581 180.402 1571.6 171 1560 171C1548.4 171 1539 180.402 1539 192C1539 203.598 1548.4 213 1560 213Z" fill="#37718E"/>
<path d="M1636 751C1637.1 751 1638 750.105 1638 749C1638 747.895 1637.1 747 1636 747C1634.9 747 1634 747.895 1634 749C1634 750.105 1634.9 751 1636 751Z" fill="#37718E"/>
<path d="M1473 899C1473.55 899 1474 898.552 1474 898C1474 897.448 1473.55 897 1473 897C1472.45 897 1472 897.448 1472 898C1472 898.552 1472.45 899 1473 899Z" fill="#37718E"/>
<path d="M289 181C290.657 181 292 179.657 292 178C292 176.343 290.657 175 289 175C287.343 175 286 176.343 286 178C286 179.657 287.343 181 289 181Z" fill="#37718E"/>
<path d="M1530 601C1538.28 601 1545 594.284 1545 586C1545 577.716 1538.28 571 1530 571C1521.72 571 1515 577.716 1515 586C1515 594.284 1521.72 601 1530 601Z" fill="#37718E"/>
<path d="M323 649C328.523 649 333 644.523 333 639C333 633.477 328.523 629 323 629C317.477 629 313 633.477 313 639C313 644.523 317.477 649 323 649Z" fill="#37718E"/>
<path d="M1086 791C1099.25 791 1110 780.255 1110 767C1110 753.745 1099.25 743 1086 743C1072.75 743 1062 753.745 1062 767C1062 780.255 1072.75 791 1086 791Z" fill="#37718E"/>
<path d="M1458 785C1468.49 785 1477 776.493 1477 766C1477 755.507 1468.49 747 1458 747C1447.51 747 1439 755.507 1439 766C1439 776.493 1447.51 785 1458 785Z" fill="#37718E"/>
<path d="M503 338C505.761 338 508 335.761 508 333C508 330.239 505.761 328 503 328C500.239 328 498 330.239 498 333C498 335.761 500.239 338 503 338Z" fill="#37718E"/>
<path d="M899 181C900.657 181 902 179.657 902 178C902 176.343 900.657 175 899 175C897.343 175 896 176.343 896 178C896 179.657 897.343 181 899 181Z" fill="#37718E"/>
<path d="M1567 96C1580.25 96 1591 85.2548 1591 72C1591 58.7452 1580.25 48 1567 48C1553.75 48 1543 58.7452 1543 72C1543 85.2548 1553.75 96 1567 96Z" fill="#37718E"/>
<path d="M1371 881C1377.08 881 1382 876.075 1382 870C1382 863.925 1377.08 859 1371 859C1364.92 859 1360 863.925 1360 870C1360 876.075 1364.92 881 1371 881Z" fill="#37718E"/>
<path d="M1146 933C1152.08 933 1157 928.075 1157 922C1157 915.925 1152.08 911 1146 911C1139.92 911 1135 915.925 1135 922C1135 928.075 1139.92 933 1146 933Z" fill="#37718E"/>
<path d="M417 201C420.866 201 424 197.866 424 194C424 190.134 420.866 187 417 187C413.134 187 410 190.134 410 194C410 197.866 413.134 201 417 201Z" fill="#37718E"/>
<path d="M1344 99C1351.73 99 1358 92.732 1358 85C1358 77.268 1351.73 71 1344 71C1336.27 71 1330 77.268 1330 85C1330 92.732 1336.27 99 1344 99Z" fill="#37718E"/>
<path d="M464 669C468.418 669 472 665.418 472 661C472 656.582 468.418 653 464 653C459.582 653 456 656.582 456 661C456 665.418 459.582 669 464 669Z" fill="#37718E"/>
<path d="M1792 317C1804.15 317 1814 307.15 1814 295C1814 282.85 1804.15 273 1792 273C1779.85 273 1770 282.85 1770 295C1770 307.15 1779.85 317 1792 317Z" fill="#37718E"/>
<path d="M645 247C651.075 247 656 242.075 656 236C656 229.925 651.075 225 645 225C638.925 225 634 229.925 634 236C634 242.075 638.925 247 645 247Z" fill="#37718E"/>
<path d="M282 459C287.523 459 292 454.523 292 449C292 443.477 287.523 439 282 439C276.477 439 272 443.477 272 449C272 454.523 276.477 459 282 459Z" fill="#37718E"/>
<path d="M1175 99C1184.39 99 1192 91.3888 1192 82C1192 72.6112 1184.39 65 1175 65C1165.61 65 1158 72.6112 1158 82C1158 91.3888 1165.61 99 1175 99Z" fill="#37718E"/>
<path d="M1635 970C1643.28 970 1650 963.284 1650 955C1650 946.716 1643.28 940 1635 940C1626.72 940 1620 946.716 1620 955C1620 963.284 1626.72 970 1635 970Z" fill="#37718E"/>
<path d="M1835 653C1841.08 653 1846 648.075 1846 642C1846 635.925 1841.08 631 1835 631C1828.92 631 1824 635.925 1824 642C1824 648.075 1828.92 653 1835 653Z" fill="#37718E"/>
<path d="M838 315C841.314 315 844 312.314 844 309C844 305.686 841.314 303 838 303C834.686 303 832 305.686 832 309C832 312.314 834.686 315 838 315Z" fill="#37718E"/>
<path d="M1839 827C1847.28 827 1854 820.284 1854 812C1854 803.716 1847.28 797 1839 797C1830.72 797 1824 803.716 1824 812C1824 820.284 1830.72 827 1839 827Z" fill="#37718E"/>
<path d="M1576 1020C1587.05 1020 1596 1011.05 1596 1000C1596 988.954 1587.05 980 1576 980C1564.95 980 1556 988.954 1556 1000C1556 1011.05 1564.95 1020 1576 1020Z" fill="#37718E"/>
<path d="M1647 20C1654.73 20 1661 13.732 1661 6C1661 -1.73199 1654.73 -8 1647 -8C1639.27 -8 1633 -1.73199 1633 6C1633 13.732 1639.27 20 1647 20Z" fill="#37718E"/>
<path d="M650 730C653.314 730 656 727.314 656 724C656 720.686 653.314 718 650 718C646.686 718 644 720.686 644 724C644 727.314 646.686 730 650 730Z" fill="#37718E"/>
<path d="M577 27C590.255 27 601 16.2548 601 3C601 -10.2548 590.255 -21 577 -21C563.745 -21 553 -10.2548 553 3C553 16.2548 563.745 27 577 27Z" fill="#37718E"/>
<path d="M1409 219C1412.87 219 1416 215.866 1416 212C1416 208.134 1412.87 205 1409 205C1405.13 205 1402 208.134 1402 212C1402 215.866 1405.13 219 1409 219Z" fill="#37718E"/>
<path d="M266 517C274.284 517 281 510.284 281 502C281 493.716 274.284 487 266 487C257.716 487 251 493.716 251 502C251 510.284 257.716 517 266 517Z" fill="#37718E"/>
<path d="M1317 602C1324.18 602 1330 596.18 1330 589C1330 581.82 1324.18 576 1317 576C1309.82 576 1304 581.82 1304 589C1304 596.18 1309.82 602 1317 602Z" fill="#37718E"/>
<path d="M135 495C138.314 495 141 492.314 141 489C141 485.686 138.314 483 135 483C131.686 483 129 485.686 129 489C129 492.314 131.686 495 135 495Z" fill="#37718E"/>
<path d="M1743 753C1750.18 753 1756 747.18 1756 740C1756 732.82 1750.18 727 1743 727C1735.82 727 1730 732.82 1730 740C1730 747.18 1735.82 753 1743 753Z" fill="#37718E"/>
<path d="M996 434C1000.97 434 1005 429.971 1005 425C1005 420.029 1000.97 416 996 416C991.029 416 987 420.029 987 425C987 429.971 991.029 434 996 434Z" fill="#37718E"/>
<path d="M656 1018C656.552 1018 657 1017.55 657 1017C657 1016.45 656.552 1016 656 1016C655.448 1016 655 1016.45 655 1017C655 1017.55 655.448 1018 656 1018Z" fill="#37718E"/>
<path d="M997 244C1001.42 244 1005 240.418 1005 236C1005 231.582 1001.42 228 997 228C992.582 228 989 231.582 989 236C989 240.418 992.582 244 997 244Z" fill="#37718E"/>
<path d="M1390 665C1397.73 665 1404 658.732 1404 651C1404 643.268 1397.73 637 1390 637C1382.27 637 1376 643.268 1376 651C1376 658.732 1382.27 665 1390 665Z" fill="#37718E"/>
<path d="M1338 553C1346.84 553 1354 545.837 1354 537C1354 528.163 1346.84 521 1338 521C1329.16 521 1322 528.163 1322 537C1322 545.837 1329.16 553 1338 553Z" fill="#37718E"/>
</g>
<defs>
<clipPath id="clip0_10_1108">
<rect width="1920" height="1080" fill="white"/>
</clipPath>
</defs>
</svg>
