<svg width="1857" height="1080" viewBox="0 0 1857 1080" fill="none" xmlns="http://www.w3.org/2000/svg">
<path d="M141 1121C200.094 1121 248 1073.09 248 1014C248 954.906 200.094 907 141 907C81.9055 907 34 954.906 34 1014C34 1073.09 81.9055 1121 141 1121Z" fill="#7FC8F8"/>
<path d="M868 347C890.091 347 908 329.091 908 307C908 284.909 890.091 267 868 267C845.909 267 828 284.909 828 307C828 329.091 845.909 347 868 347Z" fill="#7FC8F8"/>
<path d="M447 302C471.853 302 492 281.853 492 257C492 232.147 471.853 212 447 212C422.147 212 402 232.147 402 257C402 281.853 422.147 302 447 302Z" fill="#7FC8F8"/>
<path d="M1452 767C1498.39 767 1536 729.392 1536 683C1536 636.608 1498.39 599 1452 599C1405.61 599 1368 636.608 1368 683C1368 729.392 1405.61 767 1452 767Z" fill="#7FC8F8"/>
<path d="M472 769C521.153 769 561 729.153 561 680C561 630.847 521.153 591 472 591C422.847 591 383 630.847 383 680C383 729.153 422.847 769 472 769Z" fill="#7FC8F8"/>
<path d="M764 635C819.781 635 865 589.781 865 534C865 478.219 819.781 433 764 433C708.219 433 663 478.219 663 534C663 589.781 708.219 635 764 635Z" fill="#7FC8F8"/>
<path d="M457 951C479.644 951 498 932.644 498 910C498 887.356 479.644 869 457 869C434.356 869 416 887.356 416 910C416 932.644 434.356 951 457 951Z" fill="#7FC8F8"/>
<path d="M1664 541C1689.41 541 1710 520.405 1710 495C1710 469.595 1689.41 449 1664 449C1638.59 449 1618 469.595 1618 495C1618 520.405 1638.59 541 1664 541Z" fill="#7FC8F8"/>
<path d="M1359 1139C1404.29 1139 1441 1102.29 1441 1057C1441 1011.71 1404.29 975 1359 975C1313.71 975 1277 1011.71 1277 1057C1277 1102.29 1313.71 1139 1359 1139Z" fill="#7FC8F8"/>
<path d="M103 710C159.885 710 206 663.885 206 607C206 550.115 159.885 504 103 504C46.1147 504 0 550.115 0 607C0 663.885 46.1147 710 103 710Z" fill="#7FC8F8"/>
<path d="M844 936C894.258 936 935 895.258 935 845C935 794.742 894.258 754 844 754C793.742 754 753 794.742 753 845C753 895.258 793.742 936 844 936Z" fill="#7FC8F8"/>
<path d="M233 410C258.405 410 279 389.405 279 364C279 338.595 258.405 318 233 318C207.595 318 187 338.595 187 364C187 389.405 207.595 410 233 410Z" fill="#7FC8F8"/>
<path d="M1045 131C1095.81 131 1137 89.8102 1137 39C1137 -11.8102 1095.81 -53 1045 -53C994.19 -53 953 -11.8102 953 39C953 89.8102 994.19 131 1045 131Z" fill="#7FC8F8"/>
<path d="M1095 1037C1136.42 1037 1170 1003.42 1170 962C1170 920.579 1136.42 887 1095 887C1053.58 887 1020 920.579 1020 962C1020 1003.42 1053.58 1037 1095 1037Z" fill="#7FC8F8"/>
<path d="M552 165C607.228 165 652 120.228 652 65C652 9.77153 607.228 -35 552 -35C496.772 -35 452 9.77153 452 65C452 120.228 496.772 165 552 165Z" fill="#7FC8F8"/>
<path d="M1632 105C1686.68 105 1731 60.6762 1731 6C1731 -48.6762 1686.68 -93 1632 -93C1577.32 -93 1533 -48.6762 1533 6C1533 60.6762 1577.32 105 1632 105Z" fill="#7FC8F8"/>
<path d="M1263 567C1285.09 567 1303 549.091 1303 527C1303 504.909 1285.09 487 1263 487C1240.91 487 1223 504.909 1223 527C1223 549.091 1240.91 567 1263 567Z" fill="#7FC8F8"/>
<path d="M1790 1104C1827 1104 1857 1074 1857 1037C1857 999.997 1827 970 1790 970C1753 970 1723 999.997 1723 1037C1723 1074 1753 1104 1790 1104Z" fill="#7FC8F8"/>
<path d="M1439 311C1490.36 311 1532 269.362 1532 218C1532 166.638 1490.36 125 1439 125C1387.64 125 1346 166.638 1346 218C1346 269.362 1387.64 311 1439 311Z" fill="#7FC8F8"/>
</svg>
