<svg width="65" height="33" viewBox="0 0 65 33" fill="none" xmlns="http://www.w3.org/2000/svg">
<path d="M32.1772 7.54081H63.4588V10.2699H32.1772V7.54081ZM39.316 23.556H56.033V26.2851H39.316V23.556ZM46.3472 0H49.1812V33H46.3472V0ZM45.4862 8.43852L47.9256 9.22851C46.8494 11.7661 45.5341 14.1959 43.9796 16.518C42.425 18.8161 40.7031 20.8988 38.8138 22.7661C36.9245 24.6094 34.9514 26.1295 32.8947 27.3264C32.7512 27.111 32.5599 26.8716 32.3207 26.6083C32.0816 26.321 31.8424 26.0457 31.6032 25.7824C31.388 25.519 31.1728 25.2916 30.9575 25.1001C32.4642 24.3101 33.9231 23.3286 35.3341 22.1556C36.769 20.9826 38.1202 19.6659 39.3878 18.2057C40.6792 16.7214 41.8391 15.1534 42.8675 13.5016C43.8958 11.8498 44.7688 10.1621 45.4862 8.43852ZM50.0421 8.54625C50.9988 10.8205 52.2304 13.0229 53.7371 15.1534C55.2438 17.2601 56.9298 19.1632 58.7952 20.8629C60.6846 22.5386 62.6576 23.8792 64.7144 24.8847C64.4991 25.0762 64.26 25.3036 63.9969 25.5669C63.7577 25.8303 63.5186 26.1175 63.2794 26.4287C63.0403 26.716 62.837 26.9913 62.6696 27.2546C60.5889 26.0816 58.592 24.5854 56.6787 22.7661C54.7894 20.9227 53.0794 18.852 51.5488 16.5539C50.0182 14.2557 48.7268 11.8618 47.6745 9.37215L50.0421 8.54625Z" fill="black"/>
<path d="M0.285767 2.40588H23.8187V32.4255H20.9488V5.09903H3.04802V32.605H0.285767V2.40588ZM2.15118 14.8303H22.1685V17.4875H2.15118V14.8303ZM2.07943 27.5778H22.2044V30.271H2.07943V27.5778Z" fill="black"/>
<rect x="0.134398" y="0.166092" width="2.15319" height="9.13724" transform="matrix(0.993729 0.112082 -0.0977425 0.995198 16.2738 5.69521)" fill="#585858"/>
<rect x="0.134398" y="0.166092" width="2.15319" height="9.13724" transform="matrix(0.993729 0.112082 -0.0977425 0.995198 16.2738 5.69521)" fill="#585858"/>
<rect x="0.134398" y="0.166092" width="2.15319" height="9.13724" transform="matrix(0.993729 0.112082 -0.0977425 0.995198 16.2738 5.69521)" fill="#585858"/>
<rect x="0.134398" y="0.166092" width="2.15319" height="9.13724" transform="matrix(0.993729 0.112082 -0.0977425 0.995198 16.2738 5.69521)" fill="#585858"/>
<rect x="0.134398" y="0.166092" width="2.15319" height="9.13724" transform="matrix(0.993729 0.112082 -0.0977425 0.995198 16.2738 5.69521)" fill="#585858"/>
<rect x="0.134398" y="0.166092" width="2.15319" height="9.13724" transform="matrix(0.993729 0.112082 -0.0977425 0.995198 16.2738 5.69521)" fill="#5A2525"/>
<rect x="0.134398" y="0.166092" width="2.15319" height="9.13724" transform="matrix(0.993729 0.112082 -0.0977425 0.995198 16.2738 5.69521)" stroke="black" stroke-width="0.3"/>
<rect x="18.6828" y="5.85947" width="2.16039" height="9.14673" fill="#585858"/>
<rect x="18.6828" y="5.85947" width="2.16039" height="9.14673" fill="#585858"/>
<rect x="18.6828" y="5.85947" width="2.16039" height="9.14673" fill="#585858"/>
<rect x="18.6828" y="5.85947" width="2.16039" height="9.14673" fill="#585858"/>
<rect x="18.6828" y="5.85947" width="2.16039" height="9.14673" fill="#585858"/>
<rect x="18.6828" y="5.85947" width="2.16039" height="9.14673" fill="#5A2525"/>
<rect x="18.6828" y="5.85947" width="2.16039" height="9.14673" stroke="black" stroke-width="0.3"/>
<rect x="-0.14871" y="0.151448" width="2.32218" height="8.55699" transform="matrix(0.00855389 0.999963 -0.999953 0.00969103 12.1598 12.4717)" fill="#585858"/>
<rect x="-0.14871" y="0.151448" width="2.32218" height="8.55699" transform="matrix(0.00855389 0.999963 -0.999953 0.00969103 12.1598 12.4717)" fill="#585858"/>
<rect x="-0.14871" y="0.151448" width="2.32218" height="8.55699" transform="matrix(0.00855389 0.999963 -0.999953 0.00969103 12.1598 12.4717)" fill="#585858"/>
<rect x="-0.14871" y="0.151448" width="2.32218" height="8.55699" transform="matrix(0.00855389 0.999963 -0.999953 0.00969103 12.1598 12.4717)" fill="#585858"/>
<rect x="-0.14871" y="0.151448" width="2.32218" height="8.55699" transform="matrix(0.00855389 0.999963 -0.999953 0.00969103 12.1598 12.4717)" fill="#585858"/>
<rect x="-0.14871" y="0.151448" width="2.32218" height="8.55699" transform="matrix(0.00855389 0.999963 -0.999953 0.00969103 12.1598 12.4717)" fill="#5A2525"/>
<rect x="-0.14871" y="0.151448" width="2.32218" height="8.55699" transform="matrix(0.00855389 0.999963 -0.999953 0.00969103 12.1598 12.4717)" stroke="black" stroke-width="0.3"/>
<rect x="12.7762" y="5.85947" width="2.16038" height="9.14673" fill="#585858"/>
<rect x="12.7762" y="5.85947" width="2.16038" height="9.14673" fill="#585858"/>
<rect x="12.7762" y="5.85947" width="2.16038" height="9.14673" fill="#585858"/>
<rect x="12.7762" y="5.85947" width="2.16038" height="9.14673" fill="#585858"/>
<rect x="12.7762" y="5.85947" width="2.16038" height="9.14673" fill="#585858"/>
<rect x="12.7762" y="5.85947" width="2.16038" height="9.14673" fill="#5A2525"/>
<rect x="12.7762" y="5.85947" width="2.16038" height="9.14673" stroke="black" stroke-width="0.3"/>
<rect x="-0.134398" y="0.166092" width="2.15319" height="9.13724" transform="matrix(-0.993729 0.112082 0.0977425 0.995198 7.75134 18.1276)" fill="#585858"/>
<rect x="-0.134398" y="0.166092" width="2.15319" height="9.13724" transform="matrix(-0.993729 0.112082 0.0977425 0.995198 7.75134 18.1276)" fill="#585858"/>
<rect x="-0.134398" y="0.166092" width="2.15319" height="9.13724" transform="matrix(-0.993729 0.112082 0.0977425 0.995198 7.75134 18.1276)" fill="#585858"/>
<rect x="-0.134398" y="0.166092" width="2.15319" height="9.13724" transform="matrix(-0.993729 0.112082 0.0977425 0.995198 7.75134 18.1276)" fill="#585858"/>
<rect x="-0.134398" y="0.166092" width="2.15319" height="9.13724" transform="matrix(-0.993729 0.112082 0.0977425 0.995198 7.75134 18.1276)" fill="#585858"/>
<rect x="-0.134398" y="0.166092" width="2.15319" height="9.13724" transform="matrix(-0.993729 0.112082 0.0977425 0.995198 7.75134 18.1276)" fill="#5A2525"/>
<rect x="-0.134398" y="0.166092" width="2.15319" height="9.13724" transform="matrix(-0.993729 0.112082 0.0977425 0.995198 7.75134 18.1276)" stroke="black" stroke-width="0.3"/>
<rect x="-0.15" y="0.15" width="2.16038" height="9.14673" transform="matrix(-1 0 0 1 5.45952 18.1118)" fill="#585858"/>
<rect x="-0.15" y="0.15" width="2.16038" height="9.14673" transform="matrix(-1 0 0 1 5.45952 18.1118)" fill="#585858"/>
<rect x="-0.15" y="0.15" width="2.16038" height="9.14673" transform="matrix(-1 0 0 1 5.45952 18.1118)" fill="#585858"/>
<rect x="-0.15" y="0.15" width="2.16038" height="9.14673" transform="matrix(-1 0 0 1 5.45952 18.1118)" fill="#585858"/>
<rect x="-0.15" y="0.15" width="2.16038" height="9.14673" transform="matrix(-1 0 0 1 5.45952 18.1118)" fill="#585858"/>
<rect x="-0.15" y="0.15" width="2.16038" height="9.14673" transform="matrix(-1 0 0 1 5.45952 18.1118)" fill="#5A2525"/>
<rect x="-0.15" y="0.15" width="2.16038" height="9.14673" transform="matrix(-1 0 0 1 5.45952 18.1118)" stroke="black" stroke-width="0.3"/>
<rect x="-0.191471" y="0.0796033" width="2.19568" height="9.03796" transform="matrix(-0.911831 -0.403367 -0.36464 0.934056 20.4525 19.0464)" fill="#585858"/>
<rect x="-0.191471" y="0.0796033" width="2.19568" height="9.03796" transform="matrix(-0.911831 -0.403367 -0.36464 0.934056 20.4525 19.0464)" fill="#585858"/>
<rect x="-0.191471" y="0.0796033" width="2.19568" height="9.03796" transform="matrix(-0.911831 -0.403367 -0.36464 0.934056 20.4525 19.0464)" fill="#585858"/>
<rect x="-0.191471" y="0.0796033" width="2.19568" height="9.03796" transform="matrix(-0.911831 -0.403367 -0.36464 0.934056 20.4525 19.0464)" fill="#585858"/>
<rect x="-0.191471" y="0.0796033" width="2.19568" height="9.03796" transform="matrix(-0.911831 -0.403367 -0.36464 0.934056 20.4525 19.0464)" fill="#585858"/>
<rect x="-0.191471" y="0.0796033" width="2.19568" height="9.03796" transform="matrix(-0.911831 -0.403367 -0.36464 0.934056 20.4525 19.0464)" fill="#5A2525"/>
<rect x="-0.191471" y="0.0796033" width="2.19568" height="9.03796" transform="matrix(-0.911831 -0.403367 -0.36464 0.934056 20.4525 19.0464)" stroke="black" stroke-width="0.3"/>
<rect x="-0.15" y="0.15" width="2.16039" height="9.14673" transform="matrix(-1 0 0 1 11.1183 18.1118)" fill="#585858"/>
<rect x="-0.15" y="0.15" width="2.16039" height="9.14673" transform="matrix(-1 0 0 1 11.1183 18.1118)" fill="#585858"/>
<rect x="-0.15" y="0.15" width="2.16039" height="9.14673" transform="matrix(-1 0 0 1 11.1183 18.1118)" fill="#585858"/>
<rect x="-0.15" y="0.15" width="2.16039" height="9.14673" transform="matrix(-1 0 0 1 11.1183 18.1118)" fill="#585858"/>
<rect x="-0.15" y="0.15" width="2.16039" height="9.14673" transform="matrix(-1 0 0 1 11.1183 18.1118)" fill="#585858"/>
<rect x="-0.15" y="0.15" width="2.16039" height="9.14673" transform="matrix(-1 0 0 1 11.1183 18.1118)" fill="#5A2525"/>
<rect x="-0.15" y="0.15" width="2.16039" height="9.14673" transform="matrix(-1 0 0 1 11.1183 18.1118)" stroke="black" stroke-width="0.3"/>
</svg>
